<?xml version="1.0" standalone="no"?>
<!DOCTYPE svg PUBLIC "-//W3C//DTD SVG 20010904//EN"
 "http://www.w3.org/TR/2001/REC-SVG-20010904/DTD/svg10.dtd">
<svg version="1.0" xmlns="http://www.w3.org/2000/svg"
 width="2749.000000pt" height="1177.000000pt" viewBox="0 0 2749.000000 1177.000000"
 preserveAspectRatio="xMidYMid meet">

<g transform="translate(0.000000,1177.000000) scale(0.100000,-0.100000)"
fill="#000000" stroke="none">
<path d="M5559 10244 c-18 -22 -141 -122 -237 -193 -319 -237 -752 -439 -1137
-531 -254 -61 -424 -80 -710 -80 -300 0 -746 54 -946 116 -14 4 -21 -17 -42
-133 -88 -471 -115 -747 -124 -1268 -13 -737 58 -1361 237 -2090 424 -1728
1265 -3184 2371 -4110 224 -187 583 -445 620 -445 32 0 362 230 543 378 239
195 593 545 792 783 920 1096 1569 2614 1808 4224 56 381 75 702 71 1205 -4
470 -22 717 -80 1080 -24 149 -62 352 -70 377 -3 9 -16 9 -55 -3 -155 -46
-506 -96 -765 -109 -239 -12 -562 17 -840 76 -456 97 -991 369 -1343 683 -35
31 -67 56 -71 56 -5 0 -15 -7 -22 -16z m93 -191 l60 -47 -6 -106 c-10 -171
-56 -1012 -64 -1175 l-7 -150 -50 0 -50 0 -7 140 c-13 244 -58 1065 -64 1181
l-6 110 58 47 c33 26 63 47 67 47 5 0 36 -21 69 -47z m-345 -279 c12 -98 138
-1087 149 -1168 l6 -43 -51 -6 c-29 -3 -90 -16 -137 -28 -47 -12 -86 -20 -88
-18 -9 14 -456 1046 -456 1055 0 7 73 48 163 92 156 77 336 179 367 208 26 25
35 9 47 -92z m604 88 c56 -43 254 -156 382 -217 75 -36 137 -72 137 -78 0 -7
-30 -79 -66 -162 -36 -82 -138 -316 -226 -520 -88 -203 -162 -371 -163 -373
-1 -2 -38 6 -81 18 -44 11 -103 23 -133 27 l-53 6 5 61 c3 34 39 325 81 647
42 323 76 592 76 598 0 16 14 14 41 -7z m-1288 -478 c88 -162 460 -852 476
-881 11 -21 8 -24 -40 -48 -57 -29 -60 -28 -105 37 -16 23 -85 121 -154 218
-69 97 -177 249 -240 338 -63 90 -148 208 -187 264 -40 55 -73 104 -73 108 0
5 223 85 250 89 3 0 36 -56 73 -125z m2122 83 c79 -25 110 -39 109 -50 -1 -14
-86 -136 -319 -462 -40 -55 -127 -179 -195 -275 -68 -96 -136 -192 -152 -212
l-28 -37 -50 22 c-27 12 -50 28 -50 35 0 7 30 67 66 135 37 67 116 214 177
327 61 113 127 234 146 271 20 36 63 116 96 177 43 81 64 111 75 108 8 -3 65
-20 125 -39z m-3814 -107 l104 -13 147 -101 c80 -56 197 -135 260 -178 62 -42
178 -121 258 -175 80 -55 332 -227 560 -382 228 -155 419 -287 424 -291 12
-12 -18 -57 -42 -64 -13 -4 -76 26 -193 92 -96 55 -253 143 -349 197 -96 54
-240 135 -320 180 -80 46 -323 183 -540 305 -702 395 -660 370 -660 394 0 11
5 37 10 57 l10 36 113 -22 c62 -12 160 -28 218 -35z m5642 43 c3 -10 8 -34 11
-54 l6 -37 -77 -45 c-43 -25 -186 -106 -318 -180 -132 -74 -264 -149 -293
-166 -29 -17 -54 -31 -56 -31 -2 0 -64 -34 -137 -76 -74 -42 -168 -95 -209
-119 -41 -23 -97 -54 -125 -70 -27 -15 -131 -74 -230 -130 -99 -56 -278 -157
-398 -225 l-219 -123 -30 30 c-17 17 -28 35 -24 41 3 5 54 42 113 82 60 41
194 132 298 203 233 159 325 223 670 457 149 101 335 229 415 284 l145 99 180
29 c99 15 191 32 205 37 40 15 68 13 73 -6z m-1367 -38 c159 -23 299 -35 442
-36 73 -1 134 -5 136 -8 4 -5 -1345 -1052 -1365 -1059 -5 -2 -24 9 -42 25 -18
15 -56 43 -85 62 -28 18 -52 35 -52 38 0 3 48 61 108 131 59 69 143 169 187
221 44 53 145 173 225 266 80 94 184 216 230 272 47 57 92 103 101 103 8 0 60
-7 115 -15z m-3001 -127 c61 -72 139 -166 175 -208 36 -42 124 -145 195 -230
72 -85 178 -211 237 -280 60 -69 108 -127 108 -130 0 -12 -172 -131 -183 -127
-12 5 -97 70 -417 317 -221 171 -317 246 -654 505 l-298 230 186 7 c163 5 453
33 465 44 2 2 20 4 40 4 34 -1 43 -9 146 -132z m-1522 -212 c72 -35 236 -114
362 -176 230 -113 519 -253 1015 -496 146 -71 325 -158 398 -194 l133 -65 -51
-72 c-28 -40 -54 -74 -58 -76 -4 -3 -32 4 -62 13 -30 10 -248 75 -485 145
-236 69 -488 144 -560 165 -145 43 -259 77 -610 180 -132 39 -249 73 -259 77
-18 5 -18 13 -13 112 9 148 45 451 53 451 2 0 64 -29 137 -64z m5956 -23 c21
-164 41 -375 41 -427 l0 -51 -287 -85 c-159 -46 -346 -101 -418 -123 -71 -21
-182 -53 -245 -72 -63 -18 -239 -70 -390 -115 -569 -169 -651 -193 -653 -189
-2 2 -26 36 -55 75 -29 39 -52 75 -52 78 0 7 289 150 915 455 541 264 738 360
915 448 102 50 192 92 201 92 13 1 19 -17 28 -86z m-2852 -569 c490 -87 884
-496 982 -1019 l9 -48 -97 7 c-187 12 -380 54 -598 131 -234 83 -317 100 -488
100 -173 -1 -263 -19 -490 -100 -221 -79 -386 -114 -652 -139 -51 -5 -53 -4
-53 20 0 43 50 225 85 309 70 168 158 296 297 431 270 262 636 374 1005 308z
m-3136 -139 c85 -20 213 -49 284 -66 72 -16 168 -38 215 -49 267 -62 456 -106
715 -165 160 -37 337 -78 395 -92 58 -13 120 -27 138 -30 44 -8 48 -22 22 -72
-19 -38 -23 -41 -53 -36 -49 8 -747 106 -1387 195 -239 33 -452 63 -472 66
l-38 6 0 123 c0 119 4 155 19 155 4 0 77 -16 162 -35z m6047 -107 l3 -136 -28
-6 c-16 -3 -127 -20 -248 -36 -121 -17 -317 -44 -435 -61 -118 -16 -343 -48
-500 -70 -157 -22 -377 -53 -490 -69 -113 -17 -211 -30 -217 -30 -12 0 -53 69
-53 89 0 5 44 19 98 31 53 12 153 35 222 51 69 17 175 41 235 55 61 13 207 46
325 74 118 28 265 62 325 75 61 14 252 59 425 99 173 41 320 73 325 72 6 -2
11 -58 13 -138z m-5833 -357 c204 -17 519 -42 700 -56 586 -46 787 -64 793
-69 3 -3 -7 -45 -21 -93 -15 -49 -33 -124 -40 -168 l-14 -80 -59 3 c-115 7
-239 37 -594 144 -422 126 -735 125 -1057 -6 l-81 -34 -6 32 c-2 17 -8 104
-12 194 -5 134 -4 162 7 162 8 0 181 -13 384 -29z m5830 -148 c-4 -98 -11
-182 -15 -187 -5 -5 -41 5 -83 23 -138 57 -264 82 -442 88 -224 7 -354 -12
-610 -92 -323 -101 -481 -138 -589 -139 l-69 -1 -13 73 c-7 40 -25 113 -40
163 -15 49 -25 91 -22 94 2 3 146 16 319 30 173 14 483 39 689 55 685 56 835
68 859 69 l23 1 -7 -177z m-390 -204 c101 -17 203 -48 286 -86 l79 -36 0 -58
c0 -32 -5 -61 -10 -64 -6 -4 -48 9 -93 29 -45 19 -132 48 -192 63 -100 25
-126 27 -280 27 -193 -1 -338 -23 -496 -73 -397 -127 -595 -171 -769 -171
-258 0 -495 48 -843 169 -212 74 -420 91 -615 51 -57 -11 -196 -52 -310 -90
-234 -78 -408 -114 -623 -130 -151 -12 -248 -4 -404 31 -129 30 -144 34 -509
145 -44 13 -141 33 -215 44 -279 41 -494 18 -715 -77 -43 -18 -81 -31 -85 -28
-3 4 -6 32 -6 63 l0 57 55 27 c69 34 183 73 280 94 54 12 122 17 240 17 192 1
308 -16 468 -67 434 -139 649 -182 842 -172 282 16 495 61 824 175 159 56 218
66 376 65 172 0 211 -8 441 -84 316 -106 485 -139 745 -147 241 -8 339 10 788
146 178 54 309 82 451 94 61 6 223 -2 290 -14z m-5002 -265 c65 -9 180 -37
290 -71 233 -71 459 -129 554 -143 176 -24 453 -4 681 50 70 17 207 57 305 90
228 78 296 92 437 92 156 0 225 -13 435 -83 307 -103 500 -143 755 -155 208
-10 388 24 780 146 201 62 224 68 353 85 272 35 508 1 699 -102 l53 -28 -3
-50 c-2 -28 -7 -53 -11 -58 -4 -4 -52 10 -107 32 -158 64 -222 75 -429 75
-225 0 -308 -14 -570 -95 -420 -129 -560 -155 -760 -145 -243 11 -418 47 -710
144 -239 80 -320 97 -475 96 -156 0 -235 -17 -478 -99 -328 -111 -555 -150
-812 -142 -177 6 -268 25 -650 141 -251 75 -373 96 -567 96 -194 0 -271 -15
-441 -87 -46 -19 -86 -32 -89 -29 -4 3 -8 30 -11 60 -4 51 -3 54 29 74 19 11
69 34 112 51 199 76 370 91 630 55z m4982 -246 c80 -13 198 -52 265 -87 45
-23 56 -33 58 -57 4 -42 -79 -471 -139 -714 -477 -1952 -1462 -3517 -2766
-4397 l-111 -75 -134 91 c-276 188 -511 384 -774 646 -733 730 -1308 1680
-1712 2831 -151 429 -284 920 -367 1356 -25 131 -45 246 -45 257 0 37 195 120
347 146 191 33 417 7 693 -80 204 -65 440 -124 559 -141 252 -35 605 12 936
126 288 99 371 115 535 106 124 -7 235 -33 430 -101 362 -126 748 -169 1030
-114 87 17 229 55 440 119 107 32 231 66 275 75 168 33 336 38 480 13z"/>
<path d="M5430 6736 c0 -7 9 -39 21 -72 28 -78 31 -204 7 -257 l-17 -38 -53
39 c-84 63 -176 102 -242 102 -23 0 -27 -3 -21 -17 57 -136 49 -199 -51 -423
-32 -74 -38 -96 -42 -180 -5 -115 16 -182 78 -248 22 -23 40 -44 40 -47 0 -2
-14 -25 -32 -50 -26 -37 -33 -57 -36 -109 -4 -56 -1 -71 24 -116 16 -29 43
-63 60 -76 17 -14 36 -40 42 -61 12 -39 43 -79 84 -107 22 -16 22 -22 39 -403
22 -499 28 -635 39 -873 6 -107 10 -225 10 -262 0 -67 0 -68 -33 -81 -44 -19
-94 -78 -107 -128 -22 -81 14 -173 83 -214 24 -14 51 -25 60 -25 10 0 17 -3
17 -7 0 -5 7 -158 15 -341 16 -359 20 -379 73 -424 74 -62 186 -36 229 52 20
41 23 70 33 350 14 380 12 366 52 374 76 15 138 99 138 186 0 84 -48 154 -126
182 l-33 12 5 75 c3 42 14 283 24 536 11 253 25 574 32 714 l11 255 52 51 c31
30 55 63 59 81 4 17 23 46 42 65 101 96 107 232 15 327 l-39 40 23 22 c13 12
37 48 55 81 43 81 51 170 22 265 -45 149 -51 298 -16 412 20 69 19 72 -23 65
-47 -7 -129 -52 -167 -92 -17 -17 -33 -31 -37 -31 -4 0 -26 32 -49 71 -23 39
-79 108 -124 153 -83 84 -236 196 -236 172z m192 -223 c78 -81 128 -155 165
-243 24 -56 27 -79 28 -170 0 -111 -18 -186 -70 -290 -27 -53 -111 -170 -123
-170 -11 0 -47 75 -61 125 -22 82 -8 200 33 285 l17 35 -34 -36 c-53 -55 -80
-138 -74 -224 3 -38 15 -95 26 -125 12 -30 21 -56 21 -57 0 -12 -60 1 -73 15
-51 56 -81 204 -58 287 6 22 27 67 47 100 63 102 96 165 92 176 -5 16 -169
-180 -191 -230 -33 -74 -34 -154 -3 -241 15 -41 29 -83 33 -92 4 -15 -1 -18
-28 -18 -28 0 -38 7 -56 35 -59 90 -77 214 -47 316 21 70 41 102 131 207 103
120 137 193 142 299 1 46 6 83 10 83 4 0 37 -30 73 -67z m-344 -112 c20 -10
56 -36 79 -57 l43 -39 -65 -75 c-154 -177 -190 -350 -109 -530 15 -33 24 -63
21 -66 -8 -8 -59 21 -84 48 -34 37 -63 102 -70 156 -7 66 10 133 69 269 54
124 73 205 63 270 -7 49 -2 52 53 24z m707 -179 c0 -112 5 -153 24 -225 39
-145 18 -248 -67 -324 -35 -32 -38 -33 -124 -33 -49 0 -88 4 -88 10 0 5 12 26
26 47 81 119 127 261 127 398 0 50 -5 108 -11 130 l-12 39 51 48 c28 26 56 48
63 48 8 0 11 -42 11 -138z m-37 -672 c94 -58 95 -199 1 -255 -32 -19 -55 -20
-359 -23 -295 -2 -328 -1 -360 15 -115 59 -106 236 15 275 11 3 166 6 345 7
308 1 327 0 358 -19z m-58 -355 c0 -24 -49 -64 -93 -76 -24 -6 -119 -9 -242
-7 l-202 3 -36 28 c-69 52 -58 56 161 60 108 1 245 3 305 5 91 2 107 0 107
-13z m-113 -337 c-6 -175 -13 -341 -47 -1128 -6 -135 -15 -249 -19 -253 -4 -4
-43 -7 -87 -5 l-79 3 -6 395 c-4 217 -7 568 -8 780 l-2 385 118 5 c65 4 122 7
127 8 5 1 7 -77 3 -190z m-332 170 c2 -7 9 -132 15 -278 37 -935 50 -1256 50
-1267 0 -8 -12 -13 -29 -13 l-29 0 -6 83 c-6 83 -14 270 -41 942 -8 204 -17
409 -20 458 l-6 87 31 0 c17 0 33 -6 35 -12z m375 -1644 c29 -18 60 -71 60
-105 0 -36 -31 -89 -61 -104 -22 -12 -74 -15 -238 -15 l-211 0 -30 28 c-58 51
-50 154 14 193 28 17 53 19 234 19 172 0 208 -3 232 -16z m-296 -376 c3 -46 8
-175 11 -288 7 -221 11 -290 21 -299 4 -3 5 145 3 329 l-4 335 68 3 c50 2 69
-1 73 -11 2 -7 -2 -159 -10 -337 -13 -289 -17 -326 -34 -349 -45 -61 -132 -46
-151 26 -9 34 -31 470 -31 616 0 53 1 57 24 57 23 0 24 -4 30 -82z"/>
<path d="M5214 5475 c-24 -36 -13 -103 21 -132 26 -23 29 -23 348 -23 276 0
326 2 345 16 12 8 22 19 22 25 0 5 -128 9 -325 9 l-326 0 -24 25 c-18 18 -25
35 -25 65 0 46 -12 51 -36 15z"/>
<path d="M5362 3328 c-22 -28 -18 -82 8 -108 19 -19 33 -20 213 -20 187 0 217
4 217 32 0 4 -88 8 -195 8 l-195 0 -16 25 c-10 16 -14 34 -10 50 7 27 -5 33
-22 13z"/>
<path d="M4100 6548 c0 -2 7 -28 15 -58 22 -82 18 -190 -7 -190 -5 0 -24 11
-43 25 -39 30 -132 65 -174 65 l-30 0 19 -42 c11 -24 19 -63 19 -88 0 -46 -2
-54 -59 -195 -52 -129 -42 -245 27 -317 l27 -28 -23 -41 c-40 -71 -28 -163 29
-214 12 -11 31 -36 41 -57 10 -20 30 -45 45 -57 l26 -21 19 -372 c31 -628 36
-743 32 -755 -3 -6 -16 -16 -31 -22 -35 -15 -70 -66 -77 -116 -9 -59 27 -124
82 -149 l41 -20 6 -90 c3 -50 10 -161 14 -247 9 -174 17 -197 78 -226 31 -15
39 -16 76 -3 71 25 77 44 88 301 5 123 10 233 10 244 0 15 11 25 35 34 19 7
47 29 62 48 23 30 28 47 28 94 0 67 -21 104 -76 131 l-34 18 3 77 c3 95 29
714 38 911 6 136 8 144 30 159 13 8 37 36 53 61 17 26 42 62 57 80 18 22 28
48 32 82 6 63 -2 91 -34 130 l-27 31 20 27 c59 80 70 146 43 257 -23 97 -26
217 -6 293 l14 52 -24 0 c-34 0 -83 -22 -120 -53 -18 -15 -36 -27 -41 -27 -5
0 -26 24 -47 54 -45 65 -126 144 -192 186 -42 26 -64 36 -64 28z m150 -180
c91 -99 144 -251 122 -354 -13 -64 -70 -185 -106 -229 -30 -36 -37 -29 -62 54
-18 61 -14 138 11 198 14 33 14 34 -2 22 -50 -42 -71 -177 -39 -254 20 -47 21
-45 -9 -45 -56 0 -96 161 -61 243 7 18 32 61 55 96 22 35 41 69 41 75 -1 22
-114 -111 -138 -163 -29 -63 -27 -130 7 -206 l20 -46 -27 3 c-67 8 -100 184
-53 279 11 24 46 73 77 109 70 81 104 150 104 213 0 26 5 47 10 47 6 0 29 -19
50 -42z m-190 -124 c7 -7 -6 -31 -36 -70 -58 -75 -82 -121 -94 -184 -11 -59 1
-137 30 -192 15 -29 16 -38 6 -38 -26 0 -65 41 -82 85 -24 64 -14 134 31 231
23 49 42 107 48 151 l11 72 38 -22 c22 -12 43 -26 48 -33z m433 -91 c3 -54 13
-120 22 -147 28 -91 16 -156 -43 -218 -22 -24 -33 -28 -84 -28 l-59 0 40 73
c59 108 75 173 68 282 -6 82 -4 92 15 112 12 13 25 23 28 23 4 0 10 -44 13
-97z m1 -494 c47 -56 26 -139 -42 -159 -24 -7 -118 -10 -265 -8 l-229 3 -24
28 c-16 18 -24 41 -24 64 0 39 26 90 49 96 9 3 127 5 263 6 l246 1 26 -31z
m-74 -237 c0 -4 -13 -15 -29 -25 -40 -24 -306 -25 -351 -2 -17 9 -30 20 -30
25 0 6 79 10 205 10 113 0 205 -4 205 -8z m-296 -229 c4 -65 11 -242 16 -393
5 -151 13 -348 16 -437 6 -144 5 -163 -9 -163 -20 0 -22 27 -47 591 -25 553
-25 519 -1 519 17 0 19 -11 25 -117z m222 30 c-3 -49 -13 -261 -21 -473 -8
-212 -18 -422 -21 -467 l-6 -83 -53 0 -53 0 -6 203 c-3 111 -9 358 -12 549
l-6 347 53 4 c30 2 71 4 93 5 l38 2 -6 -87z m44 -1113 c45 -45 33 -112 -25
-135 -43 -19 -262 -21 -300 -3 -33 15 -58 62 -49 91 3 12 16 32 27 45 20 21
28 22 174 22 139 0 155 -2 173 -20z m-216 -262 c3 -29 6 -109 7 -178 1 -69 5
-152 9 -185 6 -40 8 18 7 175 l-2 235 39 3 c21 2 42 0 47 -5 5 -5 4 -112 -2
-238 -11 -246 -16 -265 -64 -265 -44 0 -49 20 -61 264 -6 127 -10 234 -7 239
11 19 21 2 27 -45z"/>
<path d="M3985 5626 c-19 -28 -7 -69 24 -85 25 -14 370 -15 405 -1 62 23 22
30 -176 30 -112 0 -209 4 -217 9 -8 5 -14 23 -14 40 0 37 -2 38 -22 7z"/>
<path d="M4082 4073 c-10 -17 -9 -25 6 -42 16 -20 25 -22 126 -19 75 2 111 7
113 15 3 9 -25 13 -108 15 -111 3 -113 3 -119 28 -6 25 -6 25 -18 3z"/>
<path d="M6793 6536 c35 -92 39 -236 6 -236 -5 0 -28 14 -51 30 -42 31 -123
60 -165 60 -27 0 -27 5 -7 -54 23 -68 15 -135 -29 -233 -73 -159 -69 -269 11
-355 l26 -28 -22 -39 c-38 -67 -25 -169 28 -216 12 -11 31 -36 41 -57 10 -20
31 -46 46 -58 31 -24 25 51 57 -685 9 -192 18 -376 21 -408 5 -49 3 -58 -12
-64 -34 -11 -83 -67 -94 -105 -19 -73 30 -167 97 -184 13 -3 24 -9 25 -13 0
-3 6 -114 12 -247 14 -267 18 -280 83 -311 31 -15 39 -16 76 -3 73 26 78 44
91 320 l11 241 40 22 c111 61 117 202 11 267 l-38 23 6 166 c4 91 14 344 23
561 l16 395 33 30 c18 17 41 44 51 60 10 17 32 47 48 67 20 26 30 52 34 87 6
63 -2 92 -33 129 l-25 30 34 56 c46 77 53 132 27 231 -25 94 -27 220 -6 291 8
27 15 50 15 52 0 1 -10 2 -22 2 -31 -1 -103 -34 -140 -65 l-31 -26 -27 48
c-33 56 -136 158 -205 202 -54 34 -70 38 -62 17z m147 -168 c133 -159 161
-298 91 -452 -16 -35 -43 -86 -61 -111 -38 -56 -52 -50 -76 33 -18 62 -14 136
11 196 21 50 10 45 -25 -11 -26 -40 -30 -57 -30 -115 0 -38 7 -85 15 -105 19
-45 19 -43 -10 -43 -44 0 -87 119 -71 202 3 18 28 71 56 118 27 47 50 89 50
95 -1 20 -112 -111 -136 -160 -30 -64 -30 -123 0 -198 l24 -58 -26 3 c-68 8
-98 187 -48 286 13 26 49 76 79 110 62 71 86 115 93 170 9 61 14 82 22 82 4 0
23 -19 42 -42z m-230 -94 c22 -15 40 -33 40 -41 0 -8 -20 -40 -44 -71 -67 -85
-86 -134 -86 -222 0 -59 5 -86 25 -127 19 -43 21 -53 9 -53 -21 0 -63 44 -80
85 -27 66 -21 105 46 264 17 41 33 101 37 133 3 32 8 58 10 58 2 0 21 -12 43
-26z m472 -81 c-2 -33 4 -90 13 -133 36 -160 31 -205 -33 -272 -22 -24 -33
-28 -83 -28 l-58 0 39 73 c56 103 74 182 66 289 -6 85 -5 87 21 107 14 12 29
21 32 21 4 0 5 -26 3 -57z m2 -534 c52 -61 22 -150 -55 -164 -19 -3 -134 -5
-256 -3 -212 3 -224 4 -244 24 -13 13 -23 39 -26 67 -5 41 -2 49 25 77 l30 30
250 0 250 0 26 -31z m-74 -238 c0 -5 -11 -16 -25 -25 -35 -23 -320 -24 -353 0
-12 8 -22 19 -22 25 0 5 81 9 200 9 110 0 200 -4 200 -9z m-296 -143 c3 -18
10 -197 16 -398 6 -201 13 -436 17 -522 5 -139 4 -158 -9 -158 -19 0 -21 22
-48 620 -25 528 -25 490 0 490 14 0 20 -9 24 -32z m222 -95 c-3 -71 -13 -283
-21 -473 -8 -190 -18 -382 -21 -427 l-6 -83 -53 0 -53 0 -6 143 c-3 78 -9 325
-12 549 l-6 407 53 4 c30 2 71 4 93 5 l39 2 -7 -127z m50 -1078 c23 -31 27
-61 12 -91 -21 -45 -51 -54 -185 -54 -125 0 -167 8 -189 38 -32 42 -1 127 49
134 12 2 84 1 160 -2 124 -4 140 -7 153 -25z m-222 -266 c3 -34 6 -112 7 -173
1 -61 5 -138 9 -171 6 -40 8 16 7 170 l-2 230 39 3 c21 2 42 0 47 -5 8 -8 -6
-426 -16 -470 -6 -26 -50 -41 -74 -26 -22 14 -28 59 -36 296 -5 135 -4 207 2
207 6 0 13 -28 17 -61z"/>
<path d="M6683 5639 c-7 -7 -13 -28 -13 -45 0 -58 20 -64 227 -64 174 0 233 8
233 30 0 6 -71 10 -204 10 -219 0 -221 1 -228 53 -2 23 -5 26 -15 16z"/>
<path d="M6770 4057 c0 -41 17 -47 137 -47 94 0 113 3 113 15 0 12 -19 15
-109 15 -101 0 -110 2 -116 20 -9 27 -25 25 -25 -3z"/>
<path d="M19536 8243 c-63 -32 -295 -126 -368 -149 l-58 -18 0 -42 0 -43 38 7
c20 4 66 7 101 7 58 0 66 -3 84 -27 20 -27 21 -41 25 -745 4 -771 -2 -957 -33
-979 -10 -8 -63 -28 -117 -46 l-98 -32 0 -44 0 -43 38 8 c48 10 615 10 665 0
l37 -8 0 44 0 44 -64 17 c-35 10 -86 28 -114 41 -44 21 -53 29 -64 67 -10 34
-13 200 -13 778 1 635 9 951 28 1143 1 11 -7 25 -18 32 -17 12 -27 10 -69 -12z"/>
<path d="M24550 8255 c-56 -32 -222 -101 -335 -141 l-120 -42 -3 -41 -3 -42
48 6 c146 17 167 13 190 -42 14 -34 15 -125 10 -853 -3 -448 -9 -842 -12 -876
-6 -59 -5 -61 22 -73 15 -8 40 -20 55 -28 15 -7 31 -14 35 -13 5 0 23 -5 42
-11 118 -39 288 -49 411 -24 188 38 347 135 480 291 33 39 100 138 100 148 0
5 10 29 23 55 13 25 27 60 32 76 5 17 9 32 10 35 27 96 38 266 24 370 -14 106
-55 220 -100 285 -45 64 -106 125 -126 125 -7 0 -13 3 -13 8 0 6 -49 32 -75
39 -5 1 -35 10 -65 18 -38 11 -86 15 -155 13 -138 -4 -168 -21 -324 -175 -68
-68 -126 -123 -128 -123 -5 0 5 580 12 680 3 47 10 136 16 198 11 107 10 115
-7 132 -17 17 -22 17 -44 5z m495 -948 c110 -31 200 -141 240 -292 30 -112 25
-361 -9 -470 -42 -136 -120 -231 -236 -288 -62 -31 -69 -32 -191 -32 -92 0
-130 4 -142 14 -10 7 -17 11 -17 7 0 -3 -27 7 -59 24 l-60 30 0 277 c-1 153 3
316 8 363 9 82 45 190 62 190 5 0 9 6 9 14 0 18 97 109 141 131 78 41 179 54
254 32z"/>
<path d="M9840 8148 c0 -20 3 -39 8 -41 4 -3 61 -15 127 -26 173 -31 222 -47
242 -78 17 -25 18 -70 15 -643 -3 -668 -13 -1018 -31 -1066 -15 -39 -55 -58
-174 -84 -136 -30 -127 -25 -127 -76 l0 -44 58 7 c65 8 528 10 677 3 l100 -4
3 35 c2 21 -2 40 -10 46 -7 5 -64 20 -126 32 -139 27 -158 35 -172 75 -10 28
-30 995 -29 1381 l1 140 111 -225 c156 -314 332 -683 528 -1105 l166 -360 44
-3 44 -2 39 92 c60 142 548 1186 657 1407 l97 196 0 -740 c0 -407 -3 -751 -7
-764 -11 -41 -51 -60 -176 -86 -167 -36 -155 -29 -155 -81 l0 -45 53 8 c67 10
820 10 870 0 l37 -8 0 45 c0 52 12 45 -150 80 -151 32 -168 39 -177 73 -4 15
-8 399 -8 853 0 775 1 827 18 858 22 40 32 44 192 79 l125 27 0 41 0 40 -319
0 -318 0 -56 -140 c-46 -116 -301 -660 -642 -1370 l-67 -140 -85 170 c-154
304 -569 1195 -643 1375 l-42 105 -349 0 -349 0 0 -37z"/>
<path d="M20730 8144 l0 -41 88 -17 c141 -27 220 -54 234 -79 19 -32 17 -1672
-2 -1717 -17 -41 -45 -54 -175 -80 -156 -30 -145 -25 -145 -76 l0 -44 58 7
c65 8 966 10 1351 3 l254 -4 28 94 c15 52 57 178 93 278 36 101 66 188 66 193
0 5 -26 9 -59 9 l-59 0 -68 -125 c-126 -229 -161 -263 -282 -276 -42 -4 -231
-8 -418 -8 l-342 -1 -7 133 c-4 72 -5 454 -3 847 3 691 4 716 23 755 18 36 26
42 80 56 33 9 111 24 173 35 l112 18 0 41 0 40 -500 0 -500 0 0 -41z"/>
<path d="M15240 7543 c-65 -5 -145 -25 -194 -50 -27 -14 -96 -71 -154 -127
l-105 -101 6 80 c4 44 10 103 13 131 6 47 5 52 -15 59 -16 5 -42 -4 -89 -28
-90 -47 -229 -101 -329 -128 l-83 -22 0 -44 0 -43 43 7 c23 4 71 7 105 8 94 0
98 -8 107 -192 9 -180 -1 -729 -15 -798 -6 -27 -17 -55 -25 -61 -9 -6 -56 -22
-105 -35 l-90 -23 0 -44 c0 -41 2 -44 23 -38 44 11 462 17 580 9 l117 -8 0 40
0 40 -89 28 c-49 15 -102 37 -116 50 -26 22 -28 28 -36 167 -11 194 -11 478 1
566 14 110 45 180 106 242 71 70 147 105 241 110 87 5 133 -9 185 -56 91 -82
103 -160 95 -622 -6 -333 -13 -395 -44 -418 -10 -7 -57 -25 -105 -39 l-88 -27
0 -43 0 -44 53 8 c69 10 605 10 640 0 27 -7 27 -7 27 37 l0 44 -72 17 c-40 10
-88 24 -106 31 -61 25 -62 34 -62 518 0 546 -6 588 -101 691 -65 71 -199 116
-319 108z"/>
<path d="M23310 7539 c-150 -18 -419 -106 -421 -138 0 -9 -2 -23 -3 -31 -2 -8
-6 -42 -10 -75 -3 -33 -11 -86 -17 -119 -6 -32 -9 -59 -7 -61 2 -2 24 -6 49
-10 46 -7 46 -7 63 32 22 49 47 97 55 103 4 3 22 24 40 48 43 55 96 88 170
107 69 18 149 13 206 -14 50 -23 69 -44 95 -103 24 -55 42 -205 26 -216 -6 -4
-47 -23 -91 -42 -181 -76 -497 -230 -544 -264 -164 -120 -216 -332 -125 -507
34 -67 123 -140 187 -156 71 -16 102 -20 162 -17 119 5 194 40 374 172 l44 32
22 -65 c22 -66 57 -108 104 -127 38 -14 153 -13 182 2 42 23 239 194 239 208
-1 4 -10 18 -21 31 -17 21 -23 23 -37 13 -45 -32 -116 -63 -147 -64 -39 -1
-59 12 -83 56 -18 34 -19 83 -14 616 3 319 0 345 -52 434 -70 120 -239 179
-446 155z m256 -817 c-3 -109 -11 -221 -19 -250 -27 -110 -175 -214 -311 -218
-78 -3 -88 0 -144 53 -98 93 -96 272 5 368 58 56 190 131 402 229 30 14 59 22
63 20 5 -3 7 -94 4 -202z"/>
<path d="M13380 7533 c-70 -12 -191 -48 -274 -80 l-94 -37 -7 -75 c-4 -42 -13
-110 -20 -151 -7 -41 -12 -77 -10 -79 2 -2 24 -6 48 -8 l43 -5 32 65 c66 133
144 205 254 233 135 35 259 -13 302 -117 14 -34 42 -207 35 -213 -2 -2 -67
-31 -144 -64 -479 -207 -588 -279 -646 -429 -30 -81 -31 -206 0 -286 59 -151
228 -236 413 -207 89 13 166 50 283 135 l90 64 16 -51 c31 -94 84 -141 171
-152 87 -11 125 7 253 118 l114 98 -22 33 c-21 33 -22 33 -47 15 -124 -87
-217 -76 -236 29 -4 20 -4 207 -1 416 8 488 0 546 -89 644 -72 80 -165 111
-329 110 -60 -1 -121 -4 -135 -6z m307 -815 c-3 -119 -11 -232 -17 -255 -29
-100 -172 -200 -302 -210 -53 -4 -72 -2 -106 16 -108 55 -154 220 -93 339 37
72 111 126 313 227 105 52 195 95 200 95 7 0 9 -71 5 -212z"/>
<path d="M16498 7525 c-168 -42 -313 -166 -368 -313 -82 -218 -17 -455 153
-562 31 -19 56 -38 57 -42 0 -4 -46 -47 -102 -95 -160 -138 -158 -136 -158
-182 0 -22 5 -52 11 -68 21 -55 90 -110 162 -127 26 -6 20 -12 -114 -109 -78
-56 -151 -114 -162 -129 -15 -21 -21 -44 -21 -90 -1 -148 129 -270 335 -315
98 -21 332 -21 456 1 211 36 415 138 517 257 123 145 140 370 35 484 -78 85
-193 108 -496 98 -195 -6 -376 8 -423 32 -59 30 -52 83 21 160 l49 51 52 -7
c147 -21 303 2 424 61 253 124 342 424 202 678 -10 18 -18 35 -18 39 0 3 50 4
111 1 l110 -5 30 65 c16 36 29 72 29 80 0 13 -28 14 -211 10 -192 -5 -217 -3
-272 15 -82 26 -324 34 -409 12z m241 -111 c45 -19 107 -78 132 -126 36 -70
51 -164 47 -289 -4 -107 -7 -122 -37 -183 -73 -149 -224 -194 -369 -110 -51
30 -94 86 -123 163 -27 69 -38 256 -20 343 14 65 58 137 108 175 68 52 176 63
262 27z m278 -1309 c119 -35 159 -170 88 -291 -33 -56 -75 -90 -160 -130 -92
-43 -199 -64 -330 -64 -126 0 -221 20 -292 60 -150 86 -147 208 11 366 l74 74
279 0 c220 0 290 -3 330 -15z"/>
<path d="M17860 7509 c-62 -15 -246 -40 -347 -47 l-98 -7 -3 -41 -3 -42 53 -6
c107 -13 125 -18 155 -36 49 -29 54 -80 63 -565 8 -500 7 -493 100 -587 46
-45 69 -60 121 -76 139 -43 264 -37 375 18 33 16 107 68 162 115 72 61 102 80
102 68 0 -10 -5 -58 -11 -107 -11 -86 -10 -90 11 -106 20 -15 26 -14 114 32
101 51 213 95 319 123 l67 18 0 45 c0 35 -3 43 -15 38 -9 -3 -50 -8 -93 -12
-91 -8 -117 6 -133 71 -13 54 -12 753 1 939 10 138 10 149 -7 162 -10 7 -23
12 -30 9 -26 -9 -294 -46 -383 -53 l-95 -7 -3 -41 -3 -41 96 -11 c109 -12 139
-27 153 -74 14 -46 23 -559 11 -668 -14 -139 -52 -212 -143 -275 -67 -46 -133
-66 -218 -66 -109 -1 -195 54 -235 148 -35 84 -42 596 -12 936 10 120 9 130
-8 142 -10 8 -20 14 -23 14 -3 -1 -21 -5 -40 -10z"/>
<path d="M9920 5270 l0 -70 7680 0 7680 0 0 70 0 70 -7680 0 -7680 0 0 -70z"/>
<path d="M11445 4424 c-23 -24 -15 -66 16 -83 24 -13 29 -13 53 2 28 19 36 63
14 85 -17 17 -64 15 -83 -4z"/>
<path d="M13622 4428 c-21 -21 -14 -66 13 -84 52 -34 111 31 70 76 -20 22 -65
26 -83 8z"/>
<path d="M15810 4419 c-84 -51 -120 -108 -120 -193 0 -55 -1 -56 -40 -76 -22
-11 -40 -26 -40 -33 0 -9 13 -11 40 -9 l40 4 -1 -163 c0 -217 -5 -241 -47
-254 -18 -5 -32 -16 -32 -25 0 -13 19 -15 130 -15 110 0 130 2 130 15 0 10
-16 20 -45 28 l-45 12 0 200 0 200 58 0 c53 0 60 2 70 25 l12 25 -71 0 -71 0
4 89 c3 78 6 93 27 115 48 51 117 30 149 -46 6 -16 16 -28 21 -28 5 0 18 27
29 59 l20 60 -39 15 c-57 23 -136 21 -179 -5z"/>
<path d="M18496 4432 c-3 -5 -37 -19 -76 -33 -47 -16 -70 -29 -70 -39 0 -12 8
-15 35 -12 30 4 36 1 45 -23 6 -15 10 -142 10 -311 0 -271 -1 -285 -20 -304
-11 -11 -29 -20 -40 -20 -12 0 -20 -7 -20 -17 0 -16 12 -18 127 -16 92 2 128
6 128 14 0 7 -14 17 -32 23 -18 6 -37 16 -43 22 -7 7 -11 63 -12 145 0 108 3
142 16 168 21 40 71 71 114 71 79 0 102 -44 101 -187 -1 -54 -4 -123 -7 -153
-7 -54 -8 -55 -44 -64 -24 -6 -38 -15 -38 -25 0 -14 18 -16 130 -16 112 0 130
2 130 16 0 10 -14 19 -37 25 -48 12 -50 21 -52 230 -1 150 -3 163 -24 195 -28
42 -83 62 -145 53 -33 -5 -57 -18 -93 -50 -28 -24 -52 -44 -55 -44 -3 0 -3 81
1 180 7 160 6 180 -8 180 -9 0 -18 -4 -21 -8z"/>
<path d="M22190 4421 c-19 -10 -54 -25 -77 -31 -28 -9 -43 -19 -43 -30 0 -13
7 -16 32 -12 56 8 58 0 58 -312 0 -155 -3 -291 -6 -303 -4 -16 -19 -27 -45
-35 -24 -7 -39 -17 -39 -27 0 -14 17 -16 132 -14 96 2 133 6 133 14 0 7 -16
17 -35 24 -62 21 -62 23 -57 403 4 257 2 342 -6 342 -7 -1 -28 -9 -47 -19z"/>
<path d="M22470 4419 c-17 -30 -8 -62 21 -78 24 -13 29 -13 53 2 48 32 25 97
-34 97 -19 0 -33 -7 -40 -21z"/>
<path d="M22905 4427 c-47 -22 -94 -66 -117 -111 -11 -22 -20 -42 -19 -43 0
-2 1 -25 1 -53 0 -48 -1 -50 -40 -70 -51 -26 -51 -40 0 -40 l41 0 -2 -182 c0
-101 -5 -193 -10 -206 -5 -14 -20 -25 -39 -29 -19 -3 -30 -11 -28 -20 4 -19
255 -24 263 -5 4 12 -5 19 -37 27 -63 15 -58 -2 -58 217 l0 199 56 -2 c46 -2
59 1 70 16 23 31 17 35 -57 35 l-71 0 4 90 c4 77 7 93 28 115 47 50 133 25
146 -44 9 -43 31 -33 52 25 19 52 19 54 1 70 -25 23 -143 29 -184 11z"/>
<path d="M24704 4415 c-34 -52 31 -111 76 -70 22 20 26 65 8 83 -21 21 -66 14
-84 -13z"/>
<path d="M16430 4421 c-135 -42 -206 -172 -150 -281 24 -47 51 -67 172 -126
116 -57 156 -87 174 -130 18 -43 18 -68 -2 -110 -41 -87 -200 -100 -271 -23
-12 13 -28 47 -36 74 -10 38 -19 51 -35 53 -21 3 -22 -1 -22 -66 0 -38 -3 -83
-6 -100 -6 -30 -5 -31 47 -47 71 -22 203 -30 254 -16 22 6 62 24 88 41 80 50
116 158 84 247 -22 59 -75 102 -204 165 -135 66 -163 92 -163 153 0 73 56 125
134 125 80 0 137 -46 157 -127 8 -32 16 -43 30 -43 17 0 19 9 19 94 l0 94 -65
16 c-67 17 -162 20 -205 7z"/>
<path d="M21076 4419 c-63 -15 -153 -69 -197 -116 -53 -58 -91 -142 -98 -218
-25 -254 110 -428 344 -442 101 -7 164 7 273 58 74 36 81 42 72 59 -6 11 -12
20 -14 20 -1 0 -30 -11 -63 -24 -182 -74 -355 -46 -436 72 -51 73 -61 110 -62
222 0 92 3 112 26 160 53 114 133 163 266 163 136 0 209 -53 228 -165 6 -32
11 -38 32 -38 25 0 25 2 19 46 -3 26 -6 75 -6 109 l0 63 -67 17 c-79 20 -260
29 -317 14z"/>
<path d="M9850 4398 c0 -12 12 -19 45 -24 77 -11 75 -3 75 -293 l0 -257 28
-55 c47 -94 140 -134 292 -127 69 3 98 10 143 32 62 30 112 82 128 136 6 19
14 147 18 283 7 278 4 269 82 282 27 5 39 12 39 23 0 15 -17 17 -150 17 -133
0 -150 -2 -150 -17 0 -11 12 -18 39 -23 78 -13 76 -5 76 -267 -1 -263 -6 -288
-65 -342 -47 -43 -106 -60 -182 -53 -100 9 -170 62 -188 143 -12 50 -13 474
-1 493 5 7 33 19 62 25 30 7 54 18 54 25 0 9 -42 13 -173 14 -155 2 -172 0
-172 -15z"/>
<path d="M13955 4281 c-11 -35 -66 -102 -101 -123 -47 -28 -45 -48 7 -48 l41
0 -7 -154 c-9 -184 -2 -250 31 -283 29 -29 83 -30 139 -3 58 27 66 35 60 52
-6 15 -10 15 -42 1 -44 -18 -79 -6 -93 33 -11 27 -14 312 -4 338 5 12 21 16
68 16 57 0 64 2 74 25 l12 25 -77 0 -76 0 5 70 c5 63 3 70 -13 70 -10 0 -20
-9 -24 -19z"/>
<path d="M18136 4255 c-29 -48 -56 -77 -96 -104 -39 -26 -36 -41 10 -41 l40 0
0 -195 c0 -245 7 -265 96 -265 18 0 58 12 88 27 48 23 53 29 45 45 -7 13 -14
16 -22 10 -22 -18 -72 -23 -90 -10 -29 21 -36 83 -30 240 l6 148 63 0 c52 0
65 3 74 19 5 11 10 22 10 25 0 3 -34 6 -76 6 l-75 0 7 70 c6 59 4 70 -9 70 -8
0 -27 -20 -41 -45z"/>
<path d="M12422 4180 c-146 -30 -236 -209 -188 -373 29 -99 113 -167 209 -167
39 0 88 22 158 71 51 37 58 44 46 57 -12 12 -22 10 -67 -14 -28 -15 -73 -29
-98 -31 -88 -9 -149 59 -159 176 -5 55 -4 58 18 64 13 4 81 7 150 7 109 0 128
2 142 18 39 42 2 143 -63 177 -36 18 -99 25 -148 15z m91 -60 c24 -19 53 -87
42 -98 -2 -2 -54 -7 -115 -10 -122 -5 -126 -3 -95 59 33 63 118 88 168 49z"/>
<path d="M13247 4176 c-26 -7 -61 -26 -77 -41 -83 -80 -56 -172 70 -235 111
-56 150 -100 136 -155 -9 -35 -62 -60 -109 -51 -39 7 -83 51 -93 92 -4 14 -13
24 -24 24 -14 0 -19 -12 -25 -65 -3 -35 -4 -69 -1 -74 10 -15 134 -34 180 -27
54 8 102 40 134 86 19 28 23 44 19 83 -5 61 -31 89 -142 150 -118 66 -144 113
-89 156 51 40 123 21 151 -40 10 -21 25 -40 35 -42 13 -4 18 6 23 55 4 33 3
63 -1 68 -9 8 -106 31 -127 29 -7 0 -34 -6 -60 -13z"/>
<path d="M15231 4179 c-89 -18 -166 -85 -192 -170 -18 -59 -14 -180 8 -230 82
-185 361 -183 457 4 25 49 29 68 29 139 1 94 -20 154 -69 200 -54 51 -149 74
-233 57z m92 -48 c70 -27 108 -109 108 -231 0 -142 -39 -201 -139 -208 -68 -5
-99 14 -134 81 -33 63 -38 217 -10 280 32 73 104 105 175 78z"/>
<path d="M17050 4179 c-71 -14 -98 -29 -140 -77 -93 -105 -93 -295 -2 -391 88
-93 272 -90 366 5 57 58 71 99 71 209 0 85 -3 106 -23 143 -27 51 -91 99 -141
107 -73 12 -87 13 -131 4z m100 -54 c70 -36 106 -127 98 -248 -8 -128 -56
-187 -150 -187 -60 0 -108 39 -135 108 -27 71 -24 213 6 270 34 66 115 91 181
57z"/>
<path d="M19183 4180 c-187 -38 -268 -310 -140 -466 81 -98 193 -97 326 2 42
32 49 41 38 52 -11 11 -22 8 -65 -14 -139 -72 -245 -13 -259 145 -5 55 -4 58
18 64 13 4 80 7 149 7 154 1 166 7 156 77 -3 26 -14 59 -25 73 -38 53 -117 76
-198 60z m90 -60 c24 -19 53 -87 42 -98 -2 -2 -54 -7 -115 -10 -122 -5 -126
-3 -95 59 33 63 118 88 168 49z"/>
<path d="M23243 4179 c-131 -25 -204 -125 -205 -278 -1 -156 81 -249 226 -256
107 -6 199 43 248 131 38 68 42 210 7 280 -18 39 -91 114 -108 112 -3 0 -8 1
-11 2 -35 13 -113 18 -157 9z m114 -59 c18 -10 41 -37 53 -59 21 -41 39 -140
34 -183 -11 -81 -17 -104 -35 -130 -28 -39 -69 -58 -124 -58 -39 0 -50 5 -83
38 -51 51 -66 106 -60 225 3 85 7 98 32 132 15 20 38 40 50 45 37 15 100 11
133 -10z"/>
<path d="M24740 4165 c-25 -12 -64 -28 -87 -35 -24 -7 -43 -19 -43 -26 0 -8
16 -14 43 -16 l42 -3 7 -95 c8 -114 0 -266 -16 -278 -6 -5 -24 -14 -41 -19
-16 -5 -31 -16 -33 -24 -2 -11 21 -14 133 -14 118 0 135 2 135 16 0 11 -12 19
-35 23 -20 4 -39 16 -46 27 -7 14 -10 94 -8 240 2 120 1 220 -1 223 -3 2 -25
-6 -50 -19z"/>
<path d="M10865 4163 c-16 -9 -52 -24 -80 -33 -31 -11 -51 -24 -53 -34 -3 -14
1 -16 18 -11 12 4 32 4 46 1 l24 -6 0 -174 c0 -96 -3 -181 -6 -190 -3 -8 -21
-18 -40 -22 -22 -4 -34 -12 -34 -23 0 -14 16 -16 130 -16 114 0 130 2 130 16
0 11 -12 19 -34 23 -55 10 -58 20 -54 180 3 163 11 185 82 220 32 16 44 17 76
7 59 -18 70 -52 69 -213 -1 -168 -4 -180 -52 -192 -23 -6 -37 -15 -37 -25 0
-14 18 -16 132 -14 73 2 132 5 131 8 -2 3 -3 10 -3 15 0 6 -7 10 -15 10 -8 0
-25 5 -39 11 l-24 11 -4 187 c-4 209 -11 236 -72 265 -70 33 -137 18 -204 -47
l-44 -42 4 49 c3 56 -4 62 -47 39z"/>
<path d="M11428 4146 c-43 -17 -78 -36 -78 -43 0 -7 18 -13 43 -15 l42 -3 3
-179 c2 -121 -1 -183 -9 -192 -6 -7 -26 -16 -45 -20 -22 -4 -34 -12 -34 -23 0
-14 15 -16 132 -14 95 2 133 6 133 14 0 7 -14 17 -32 23 -59 20 -58 17 -56
262 2 173 0 224 -10 223 -6 -1 -47 -16 -89 -33z"/>
<path d="M12845 4166 c-11 -7 -48 -24 -82 -36 -74 -27 -84 -50 -20 -47 l42 2
7 -55 c8 -75 9 -217 2 -274 -7 -45 -8 -47 -50 -58 -28 -8 -44 -18 -44 -28 0
-13 21 -15 140 -15 117 0 140 2 138 14 -2 8 -19 19 -38 23 -55 14 -60 28 -60
163 0 100 3 127 20 159 19 38 46 64 82 78 17 7 48 -14 48 -33 0 -5 7 -9 15 -9
16 0 26 29 28 82 2 32 1 33 -40 36 -40 3 -47 -1 -99 -50 l-56 -53 3 54 c4 58
-4 69 -36 47z"/>
<path d="M13670 4170 c-8 -5 -43 -19 -77 -31 -74 -24 -85 -49 -23 -49 36 0 40
-2 45 -33 4 -18 5 -102 3 -185 -3 -165 -4 -166 -60 -179 -17 -3 -28 -12 -28
-22 0 -14 17 -16 130 -16 112 0 130 2 130 16 0 10 -15 20 -39 28 -37 11 -40
14 -47 59 -4 26 -4 131 0 234 6 195 5 203 -34 178z"/>
<path d="M19614 4170 c-6 -6 -42 -22 -80 -35 -82 -28 -99 -55 -33 -52 38 2 43
-1 50 -23 9 -32 11 -262 3 -313 -6 -35 -11 -39 -50 -49 -28 -8 -44 -18 -44
-28 0 -13 21 -15 140 -15 117 0 140 2 138 14 -2 8 -19 19 -38 23 -19 5 -41 17
-47 26 -16 20 -18 238 -2 279 11 30 53 79 82 94 21 12 57 -5 57 -26 0 -8 7
-15 15 -15 16 0 26 29 28 82 2 32 1 33 -40 36 -40 3 -47 -1 -99 -50 l-56 -53
3 54 c4 54 -6 72 -27 51z"/>
<path d="M19975 4158 c-22 -12 -58 -27 -80 -33 -50 -15 -63 -48 -16 -39 57 12
61 0 61 -186 0 -93 -3 -175 -6 -184 -3 -8 -21 -18 -40 -22 -22 -4 -34 -12 -34
-23 0 -14 16 -16 130 -16 114 0 130 2 130 16 0 11 -12 19 -34 23 -55 10 -58
20 -54 180 3 163 11 185 82 220 33 16 43 17 78 7 59 -18 69 -50 67 -225 0 -79
-5 -149 -9 -157 -5 -7 -24 -19 -42 -25 -18 -6 -34 -17 -36 -25 -2 -12 20 -14
130 -12 93 2 133 6 133 15 0 6 -18 16 -40 22 l-40 12 -5 189 c-6 214 -14 245
-75 271 -73 30 -137 15 -204 -49 l-43 -42 6 53 c8 60 3 63 -59 30z"/>
<path d="M21676 4160 c-32 -10 -62 -22 -66 -27 -4 -4 -10 -32 -14 -60 -6 -48
-5 -53 12 -53 12 0 24 11 32 29 19 46 54 73 103 78 36 4 48 1 70 -18 29 -26
50 -109 28 -109 -24 0 -221 -99 -245 -123 -34 -34 -50 -98 -36 -141 18 -55 52
-79 118 -84 51 -3 63 0 114 31 53 33 58 34 63 16 20 -61 90 -67 151 -11 49 45
49 69 -1 45 -63 -30 -65 -24 -65 169 0 145 -3 179 -18 208 -34 68 -128 88
-246 50z m162 -377 c-17 -35 -56 -62 -98 -69 -74 -12 -118 78 -69 140 12 15
55 44 98 65 l76 39 3 -74 c2 -46 -2 -84 -10 -101z"/>
<path d="M22458 4146 c-86 -34 -101 -56 -39 -56 26 0 41 -5 45 -16 3 -9 6 -89
6 -179 0 -179 -3 -190 -61 -202 -18 -3 -29 -12 -29 -22 0 -14 17 -16 130 -16
115 0 130 2 130 17 0 10 -11 19 -29 23 -55 12 -56 18 -54 262 1 168 -1 223
-10 222 -7 -1 -47 -16 -89 -33z"/>
<path d="M23745 4165 c-10 -9 -43 -23 -73 -32 -29 -10 -58 -25 -63 -35 -9 -17
-6 -18 30 -12 59 9 63 -6 59 -201 -2 -90 -6 -166 -10 -170 -3 -4 -24 -13 -45
-20 -21 -7 -39 -19 -41 -27 -2 -10 25 -13 138 -13 121 0 140 2 140 16 0 10
-14 19 -37 25 -53 13 -63 39 -63 162 0 113 13 158 57 205 33 33 82 37 90 7 3
-11 13 -20 23 -20 13 0 19 12 24 50 4 28 4 55 1 60 -3 6 -25 10 -48 10 -37 0
-46 -6 -95 -56 l-55 -57 7 62 c8 66 0 75 -39 46z"/>
<path d="M24145 4168 c-11 -6 -49 -22 -85 -34 -78 -28 -92 -51 -28 -50 l43 1
8 -70 c8 -70 2 -271 -9 -299 -3 -9 -21 -18 -40 -22 -22 -4 -34 -12 -34 -23 0
-14 16 -16 130 -16 113 0 130 2 130 16 0 10 -11 19 -27 22 -55 12 -58 18 -61
138 -5 154 2 192 43 233 58 59 144 54 173 -9 17 -37 17 -329 -1 -343 -6 -6
-24 -13 -40 -17 -16 -4 -27 -14 -27 -24 0 -14 16 -16 130 -16 113 0 130 2 130
16 0 11 -12 18 -39 23 -22 3 -41 13 -45 22 -3 8 -6 91 -7 182 0 102 -5 180
-12 201 -33 94 -166 109 -253 29 l-44 -41 0 47 c0 49 -3 52 -35 34z"/>
<path d="M25056 4160 c-32 -10 -62 -22 -66 -27 -4 -4 -10 -32 -14 -60 -6 -47
-5 -53 12 -53 11 0 25 14 35 35 33 69 122 96 171 53 28 -25 49 -108 27 -108
-24 0 -221 -99 -245 -123 -34 -34 -50 -98 -36 -142 30 -91 130 -113 233 -51
52 32 57 33 62 15 20 -61 90 -67 151 -11 49 45 49 69 -1 45 -63 -30 -65 -24
-65 169 0 145 -3 179 -18 208 -34 68 -128 88 -246 50z m162 -377 c-17 -35 -56
-62 -98 -69 -48 -8 -80 18 -87 72 -4 35 -1 46 23 72 16 17 61 47 99 66 l70 34
3 -74 c2 -46 -2 -84 -10 -101z"/>
<path d="M11640 4152 c0 -7 10 -16 23 -21 41 -16 59 -49 147 -268 66 -163 92
-218 105 -218 12 0 31 36 69 135 123 312 127 321 163 342 55 33 42 43 -57 43
-69 0 -90 -3 -90 -13 0 -8 9 -16 20 -19 34 -9 31 -34 -26 -187 -25 -66 -48
-126 -53 -133 -8 -15 -57 94 -101 221 -26 77 -26 85 10 97 17 6 30 16 30 22 0
9 -36 12 -120 12 -91 0 -120 -3 -120 -13z"/>
<path d="M14150 4153 c0 -7 12 -18 27 -25 35 -17 55 -52 153 -275 l80 -181
-20 -55 c-27 -73 -62 -107 -109 -107 -20 0 -47 7 -60 16 -33 23 -47 5 -27 -34
9 -17 16 -38 16 -47 0 -11 11 -15 40 -15 50 0 89 19 125 62 34 40 46 67 145
335 94 251 113 291 145 303 14 5 25 15 25 22 0 10 -24 13 -90 13 -66 0 -90 -3
-90 -13 0 -7 12 -17 26 -22 32 -12 32 -13 -34 -197 l-47 -133 -24 48 c-14 26
-44 94 -67 151 -46 111 -45 123 1 135 14 4 25 12 25 19 0 9 -32 12 -120 12
-86 0 -120 -3 -120 -12z"/>
<path d="M17473 4157 c-77 -10 -99 -31 -45 -42 58 -13 57 -9 63 -196 3 -96 11
-186 17 -201 35 -84 188 -91 263 -12 32 34 40 30 33 -18 -8 -47 -11 -47 91 -4
33 14 68 26 78 26 10 0 17 8 17 18 0 15 -6 18 -30 14 -59 -9 -61 0 -59 222 1
190 0 201 -17 201 -11 0 -54 -4 -96 -9 -87 -9 -106 -30 -38 -41 24 -4 44 -14
50 -25 6 -10 10 -74 10 -142 0 -142 -13 -180 -70 -210 -79 -42 -142 -10 -156
78 -4 26 -4 117 -1 201 6 176 20 158 -110 140z"/>
</g>
</svg>
