<?xml version="1.0" standalone="no"?>
<!DOCTYPE svg PUBLIC "-//W3C//DTD SVG 20010904//EN"
 "http://www.w3.org/TR/2001/REC-SVG-20010904/DTD/svg10.dtd">
<svg version="1.0" xmlns="http://www.w3.org/2000/svg"
 width="600.000000pt" height="264.000000pt" viewBox="0 0 600.000000 264.000000"
 preserveAspectRatio="xMidYMid meet">

<g transform="translate(0.000000,264.000000) scale(0.100000,-0.100000)"
fill="#000000" stroke="none">
<path d="M0 1320 l0 -1320 3000 0 3000 0 0 1320 0 1320 -3000 0 -3000 0 0
-1320z m1105 650 c104 -62 148 -74 290 -74 72 -1 144 2 162 6 l31 7 12 -86
c17 -120 7 -372 -19 -483 -84 -359 -264 -649 -505 -812 -69 -47 -63 -49 -185
49 -208 166 -357 424 -442 763 -26 107 -37 368 -20 480 7 41 13 76 15 77 2 2
43 0 92 -4 172 -15 312 18 430 102 44 32 50 33 69 20 11 -8 43 -29 70 -45z
m1608 -92 c22 1 27 -3 27 -22 0 -13 3 -44 6 -70 8 -57 -8 -61 -35 -8 -27 53
-54 74 -105 79 -59 7 -96 -26 -96 -86 0 -50 32 -79 126 -112 37 -13 80 -37 95
-52 80 -80 49 -232 -56 -272 -54 -21 -131 -15 -180 14 -30 17 -34 18 -49 3
-15 -15 -16 -12 -16 35 0 97 21 148 36 86 20 -85 97 -137 168 -113 45 14 66
44 66 90 0 54 -23 77 -125 125 -51 25 -103 57 -114 71 -44 56 -39 144 10 193
40 40 81 52 154 44 33 -3 72 -5 88 -5z m525 -12 c38 -14 44 -14 48 -1 11 27
22 15 28 -30 3 -25 9 -65 12 -90 5 -36 3 -45 -9 -45 -8 0 -18 11 -21 25 -9 34
-69 99 -110 119 -64 30 -147 15 -193 -35 -86 -94 -73 -286 25 -382 75 -73 195
-69 282 9 60 54 61 21 2 -36 -137 -132 -368 -92 -445 78 -32 71 -30 190 5 258
42 81 98 123 193 148 33 8 137 -2 183 -18z m551 14 c24 -7 39 -6 48 2 7 6 15
9 17 7 3 -2 8 -37 11 -76 9 -85 -3 -95 -35 -33 -22 44 -71 80 -108 80 -30 0
-78 -25 -86 -45 -25 -66 9 -113 105 -149 40 -15 84 -36 100 -46 38 -28 63 -97
55 -154 -19 -124 -138 -180 -267 -125 -38 17 -52 19 -63 10 -8 -7 -17 -8 -19
-4 -6 9 10 153 17 161 9 9 26 -10 26 -29 0 -58 62 -119 121 -119 77 0 118 44
105 114 -8 43 -18 51 -129 106 -52 26 -100 57 -111 72 -29 41 -32 125 -6 166
37 59 134 87 219 62z m591 -120 c0 -71 3 -130 7 -130 3 0 15 8 26 18 13 12 36
17 73 17 45 0 58 -4 81 -28 27 -27 28 -31 31 -152 4 -125 4 -125 28 -125 15 0
24 -6 24 -15 0 -12 -17 -15 -90 -15 -71 0 -90 3 -90 14 0 8 10 16 23 18 21 3
22 6 22 116 0 107 -1 115 -24 133 -31 26 -57 24 -86 -6 -23 -23 -25 -31 -25
-130 0 -98 2 -107 20 -112 11 -3 20 -12 20 -19 0 -11 -20 -14 -90 -14 -73 0
-90 3 -90 15 0 9 9 15 24 15 13 0 27 7 30 16 10 25 7 380 -3 407 -5 13 -19 27
-30 30 -12 3 -21 9 -21 14 0 9 105 60 128 62 9 1 12 -31 12 -129z m1172 -132
l3 -263 28 -3 c15 -2 27 -9 27 -18 0 -11 -20 -14 -100 -14 -80 0 -100 3 -100
14 0 9 12 16 28 18 l27 3 3 160 c4 220 -2 262 -39 283 -16 10 -29 20 -29 23 0
6 120 54 142 58 4 0 9 -117 10 -261z m-3482 237 c0 -8 -9 -15 -19 -15 -51 0
-51 1 -51 -199 0 -157 3 -191 18 -221 47 -95 194 -89 244 11 15 28 18 60 17
194 -1 190 -5 209 -42 213 -15 2 -27 10 -27 18 0 11 19 14 90 14 71 0 90 -3
90 -14 0 -9 -12 -16 -27 -18 l-28 -3 -8 -180 c-5 -120 -13 -194 -23 -222 -30
-83 -118 -130 -222 -120 -75 8 -122 35 -152 88 -23 42 -25 55 -30 239 l-5 195
-32 3 c-21 2 -33 9 -33 18 0 11 22 14 120 14 100 0 120 -2 120 -15z m2120
-210 c34 -17 49 -58 30 -80 -19 -23 -31 -18 -71 25 -20 22 -41 40 -47 40 -29
0 -64 -47 -69 -92 -14 -123 69 -206 161 -163 20 10 39 15 43 12 23 -24 -69
-77 -133 -77 -52 0 -103 27 -132 70 -33 48 -29 150 8 204 46 66 144 95 210 61z
m723 1 c71 -29 117 -121 98 -193 -27 -99 -97 -149 -196 -141 -63 5 -108 35
-135 88 -61 120 23 258 158 260 23 0 57 -6 75 -14z m380 0 c71 -29 117 -121
98 -193 -27 -99 -97 -149 -196 -141 -65 5 -111 37 -136 92 -56 124 25 254 159
256 23 0 57 -6 75 -14z m-2762 -576 c25 -14 25 -57 -1 -65 -21 -7 -60 10 -60
25 0 17 -52 11 -66 -7 -8 -11 -13 -46 -14 -90 l0 -73 45 0 c48 0 48 0 39 -24
-4 -11 -19 -16 -45 -16 l-39 0 0 -114 0 -115 27 -3 c14 -2 28 -9 31 -15 3 -10
-21 -13 -98 -13 -77 0 -101 3 -98 13 3 6 17 13 31 15 l27 3 0 115 0 114 -25 0
c-18 0 -25 5 -25 20 0 15 7 20 25 20 21 0 25 5 25 28 0 75 41 145 102 175 38
19 91 22 119 7z m779 -107 c-1 -65 -1 -122 -1 -127 1 -5 10 -1 20 8 30 27 93
32 129 11 43 -26 52 -53 52 -165 0 -94 1 -99 22 -102 12 -2 23 -9 26 -15 3
-10 -18 -13 -82 -13 -56 0 -86 4 -86 11 0 6 9 13 20 16 18 5 20 14 20 108 0
81 -3 107 -16 119 -20 20 -53 20 -82 0 -20 -14 -22 -23 -22 -118 0 -97 1 -104
21 -109 45 -12 5 -27 -72 -27 -62 0 -79 3 -79 14 0 8 10 16 23 18 22 3 22 5
25 183 3 201 1 221 -28 230 -32 10 -24 22 33 49 81 38 78 41 77 -91z m-219 79
c92 -56 90 -190 -3 -238 -19 -10 -65 -19 -111 -22 l-78 -5 3 -91 3 -91 33 -3
c20 -2 32 -9 32 -18 0 -11 -21 -14 -110 -14 -89 0 -110 3 -110 14 0 9 12 16
28 18 l27 3 0 220 0 220 -32 3 c-22 2 -33 9 -33 19 0 13 22 14 158 11 142 -3
160 -5 193 -26z m-923 -198 c32 -24 72 -98 72 -134 0 -14 -10 -46 -22 -70 -58
-113 -221 -122 -283 -15 -51 85 -19 190 70 231 41 19 129 13 163 -12z m1608
12 c16 -12 20 -30 24 -133 l5 -118 28 2 c33 2 36 -19 5 -41 -32 -22 -74 -20
-91 5 l-15 20 -33 -20 c-63 -39 -129 -18 -129 40 0 38 39 80 100 109 50 23 51
25 48 64 -3 41 -3 41 -43 41 -38 0 -40 -2 -43 -32 -4 -41 -37 -63 -59 -40 -13
13 -13 19 -2 43 28 58 156 95 205 60z m204 -11 c0 -14 3 -25 6 -25 3 0 19 11
36 25 36 31 78 33 85 5 3 -11 7 -20 8 -20 2 0 24 9 50 20 26 11 49 20 51 20 2
0 4 -9 4 -20 0 -11 2 -20 5 -20 3 0 22 9 42 20 52 28 94 26 128 -6 l27 -25 24
22 c13 13 41 23 68 26 40 5 48 2 76 -25 30 -30 30 -31 30 -141 0 -104 1 -111
20 -111 11 0 20 -7 20 -15 0 -12 -15 -15 -75 -15 -60 0 -75 3 -75 15 0 8 7 15
15 15 23 0 22 202 -1 224 -21 22 -50 20 -74 -4 -17 -17 -20 -33 -20 -120 0
-82 3 -100 15 -100 8 0 15 -7 15 -15 0 -12 -15 -15 -75 -15 -60 0 -75 3 -75
15 0 8 9 15 20 15 19 0 20 7 20 100 0 87 -3 103 -20 120 -26 26 -46 25 -75 -5
-23 -22 -25 -32 -25 -120 0 -88 1 -95 20 -95 11 0 20 -7 20 -15 0 -12 -16 -15
-80 -15 -64 0 -80 3 -80 15 0 8 9 15 20 15 19 0 20 7 20 100 0 89 -2 100 -20
110 -14 8 -26 8 -40 0 -14 -8 -26 -8 -41 0 -16 9 -25 8 -40 -6 -16 -14 -19
-31 -19 -111 l0 -93 30 0 c20 0 30 -5 30 -15 0 -12 -17 -15 -96 -15 -72 0 -95
3 -92 13 3 6 14 13 26 15 21 3 22 8 22 102 0 89 -2 100 -20 110 -30 16 -25 25
28 48 60 27 62 27 62 -3z m916 11 c16 -12 20 -30 24 -133 l5 -118 28 2 c33 2
36 -19 5 -41 -32 -22 -74 -20 -91 5 l-15 20 -33 -20 c-63 -39 -129 -18 -129
40 0 38 39 80 100 109 50 23 51 25 48 64 -3 41 -3 41 -43 41 -38 0 -40 -2 -43
-32 -4 -41 -37 -63 -59 -40 -13 13 -13 19 -2 43 28 58 156 95 205 60z m325
-16 c25 -25 28 -33 19 -50 -18 -33 -42 -25 -73 23 -20 30 -42 34 -74 12 -46
-32 -42 -148 7 -197 33 -32 74 -37 120 -13 28 15 30 14 30 -4 0 -25 -73 -61
-126 -61 -94 0 -156 87 -133 188 19 85 74 131 157 132 35 0 49 -6 73 -30z
m179 5 c0 -8 -7 -15 -15 -15 -20 0 -18 -9 13 -110 l27 -84 33 83 c36 92 39
111 17 111 -8 0 -15 7 -15 15 0 12 13 15 60 15 44 0 60 -4 60 -14 0 -7 -9 -16
-20 -19 -21 -5 -34 -31 -146 -285 -32 -74 -68 -145 -81 -158 -24 -26 -62 -31
-81 -12 -29 29 3 71 46 62 25 -5 30 -1 55 53 l28 58 -49 135 c-36 99 -55 138
-71 145 -11 5 -21 15 -21 22 0 9 22 13 80 13 64 0 80 -3 80 -15z"/>
<path d="M1003 1993 c-8 -3 -10 -37 -6 -121 9 -191 28 -188 36 5 5 102 -1 126
-30 116z"/>
<path d="M908 1934 c-27 -13 -48 -26 -48 -29 0 -2 18 -44 41 -93 37 -81 43
-89 65 -84 13 2 24 9 24 16 -1 21 -29 208 -32 211 -2 2 -24 -8 -50 -21z"/>
<path d="M1065 1927 c-31 -184 -31 -194 -1 -199 21 -4 27 4 62 80 22 47 40 89
42 93 2 5 -19 19 -47 33 l-50 26 -6 -33z"/>
<path d="M787 1883 c-5 -9 109 -166 124 -171 17 -7 9 16 -37 97 -31 55 -52 81
-64 81 -11 0 -21 -3 -23 -7z"/>
<path d="M1156 1810 c-45 -77 -54 -100 -38 -100 12 1 131 167 125 174 -21 20
-45 0 -87 -74z"/>
<path d="M460 1871 c0 -11 372 -212 379 -206 6 7 14 1 -150 107 -100 66 -158
97 -187 102 -24 3 -42 2 -42 -3z"/>
<path d="M1510 1873 c-29 -6 -320 -192 -320 -205 0 -5 33 8 73 30 39 22 125
67 190 102 135 71 150 90 57 73z"/>
<path d="M641 1861 c-21 -6 -12 -14 85 -85 60 -44 115 -84 122 -89 8 -6 17 -5
27 3 13 10 4 25 -61 96 -70 77 -80 84 -113 83 -20 -1 -47 -4 -60 -8z"/>
<path d="M1216 1788 c-64 -70 -73 -85 -61 -97 11 -11 32 0 134 75 67 49 121
92 121 96 0 5 -27 8 -59 8 l-59 0 -76 -82z"/>
<path d="M446 1779 c-4 -23 -3 -46 1 -50 4 -4 88 -29 185 -57 136 -38 180 -46
188 -37 7 9 -35 33 -167 95 -98 45 -183 84 -189 87 -7 2 -14 -13 -18 -38z"/>
<path d="M1388 1737 c-97 -45 -179 -85 -183 -88 -3 -3 0 -11 7 -16 9 -7 65 4
188 39 96 27 179 53 183 57 9 9 -2 91 -12 90 -3 0 -86 -37 -183 -82z"/>
<path d="M930 1694 c-45 -20 -87 -59 -111 -106 -31 -60 -27 -71 23 -63 24 4
60 14 82 21 49 18 133 18 182 0 22 -7 58 -17 82 -21 50 -8 54 3 23 63 -53 103
-178 150 -281 106z"/>
<path d="M440 1666 c0 -14 4 -26 8 -26 5 0 73 -9 152 -20 255 -35 267 -22 25
29 -82 18 -158 35 -167 37 -14 4 -18 -1 -18 -20z"/>
<path d="M1425 1654 c-204 -46 -196 -44 -191 -53 3 -4 78 3 168 15 90 13 169
23 176 24 6 0 12 11 12 25 0 14 -3 25 -7 24 -5 -1 -75 -16 -158 -35z"/>
<path d="M440 1576 c0 -34 1 -35 26 -26 41 16 129 12 214 -11 44 -11 84 -18
89 -15 5 3 11 17 13 30 5 22 1 24 -46 30 -28 3 -91 8 -141 11 -49 3 -105 8
-122 11 -32 5 -33 4 -33 -30z"/>
<path d="M1425 1595 c-82 -7 -157 -14 -166 -14 -12 -1 -15 -8 -11 -26 2 -14 8
-28 13 -31 5 -3 45 5 90 17 64 17 98 21 160 16 l79 -5 0 29 c0 16 -3 28 -7 28
-5 -1 -75 -7 -158 -14z"/>
<path d="M483 1533 c-12 -2 -27 -11 -35 -20 -11 -15 -10 -16 12 -9 68 19 118
18 195 -4 98 -27 180 -27 265 -1 81 26 109 26 188 1 82 -26 162 -25 264 1 78
20 137 22 196 4 35 -11 26 12 -9 24 -48 17 -110 13 -202 -10 -91 -24 -179 -22
-256 5 -58 21 -102 20 -186 -4 -38 -11 -95 -20 -125 -20 -30 0 -87 9 -125 20
-65 19 -129 23 -182 13z"/>
<path d="M491 1487 c-19 -7 -36 -18 -39 -25 -3 -9 3 -10 23 -2 42 16 123 12
204 -11 84 -24 162 -22 240 5 56 20 136 20 192 1 78 -28 147 -30 232 -6 83 22
186 28 218 11 14 -8 19 -7 19 3 0 14 -61 37 -98 37 -11 0 -67 -11 -123 -25
-112 -27 -135 -26 -265 6 l-81 21 -74 -20 c-125 -34 -163 -35 -274 -7 -112 28
-126 29 -174 12z"/>
<path d="M483 1440 c-29 -12 -29 -32 2 -150 50 -186 137 -371 239 -506 52 -70
186 -201 246 -240 l42 -28 36 20 c20 10 81 62 135 113 110 106 203 235 265
372 48 103 108 286 118 357 6 49 5 52 -20 62 -42 15 -109 12 -188 -10 -92 -25
-145 -25 -244 1 -85 22 -129 21 -224 -6 -73 -20 -141 -19 -225 5 -74 21 -145
25 -182 10z m568 -82 c8 -15 14 -17 22 -9 6 6 16 11 22 11 13 0 17 -120 4
-136 -7 -8 -7 -14 1 -19 16 -10 12 -36 -14 -69 -21 -28 -24 -44 -28 -163 -5
-106 -3 -135 8 -144 19 -15 18 -48 -1 -55 -9 -4 -15 -19 -15 -38 0 -17 -3 -48
-6 -68 -5 -31 -11 -38 -29 -38 -25 0 -35 30 -35 100 0 24 -5 40 -15 44 -19 7
-20 40 -2 55 11 8 13 40 9 143 -4 122 -7 136 -30 165 -16 21 -22 41 -19 54 3
12 1 29 -5 39 -9 14 -8 29 2 62 8 23 13 51 12 61 -2 19 10 22 39 7 17 -10 19
-7 19 20 0 30 0 30 25 14 14 -9 31 -26 36 -36z m-261 -18 c0 -5 8 -6 18 -3 16
4 18 -3 19 -69 1 -50 -3 -78 -13 -89 -20 -23 -31 -192 -14 -224 10 -18 10 -28
2 -38 -7 -8 -15 -35 -18 -61 -5 -36 -11 -46 -23 -44 -11 2 -17 16 -19 47 -2
27 -10 50 -20 57 -14 10 -15 15 -3 37 19 36 11 199 -11 224 -9 10 -16 29 -15
43 0 14 -1 30 -3 35 -2 6 1 29 5 52 7 38 10 42 31 37 19 -5 22 -3 17 16 -6 22
-6 22 21 5 14 -9 26 -21 26 -25z m518 -2 c15 2 17 -8 19 -70 1 -54 -3 -78 -15
-91 -21 -24 -30 -188 -12 -223 11 -20 11 -27 -3 -42 -10 -11 -17 -35 -17 -60
0 -35 -3 -42 -20 -42 -17 0 -20 7 -20 42 0 25 -7 49 -17 60 -14 16 -14 22 -3
43 18 34 6 201 -16 226 -9 10 -14 24 -11 31 2 7 0 21 -4 30 -6 10 -4 35 3 63
10 36 16 44 30 39 14 -4 18 0 18 17 l0 22 26 -24 c14 -13 33 -23 42 -21z"/>
<path d="M995 1338 c-40 -64 -44 -74 -38 -96 8 -32 20 -27 15 6 -2 18 4 36 17
52 l21 25 -16 -36 c-13 -28 -14 -41 -6 -55 10 -17 11 -15 12 13 0 17 4 34 8
37 5 3 7 -8 4 -23 -6 -44 16 -48 33 -7 20 47 19 60 -7 91 l-23 26 -20 -33z"/>
<path d="M936 1299 c-15 -45 -16 -53 -4 -66 13 -12 14 -10 10 17 -3 22 2 40
16 60 19 25 20 40 3 40 -4 0 -15 -23 -25 -51z"/>
<path d="M1077 1330 c-3 -8 -7 -28 -10 -45 -2 -16 -8 -38 -12 -47 -5 -13 -3
-18 8 -18 27 0 36 23 28 75 -4 28 -10 43 -14 35z"/>
<path d="M950 1185 c8 -10 33 -16 74 -17 l61 -1 -55 -7 -55 -7 55 1 c49 1 55
3 58 24 3 21 1 22 -74 22 -67 0 -75 -2 -64 -15z"/>
<path d="M942 1164 c10 -10 20 -16 22 -13 3 3 -5 11 -17 18 -21 13 -21 12 -5
-5z"/>
<path d="M970 1130 c8 -5 29 -10 45 -10 17 0 37 5 45 10 11 7 -3 10 -45 10
-42 0 -56 -3 -45 -10z"/>
<path d="M983 1040 c0 -41 3 -104 7 -140 l7 -65 0 55 c1 30 -2 93 -6 140 l-8
85 0 -75z"/>
<path d="M1004 1058 c3 -29 6 -90 6 -135 0 -63 3 -83 14 -83 13 0 26 113 26
227 0 40 -2 43 -26 43 -26 0 -27 -1 -20 -52z"/>
<path d="M965 810 c-4 -7 -2 -17 4 -23 9 -9 10 -7 5 8 -6 16 -5 18 7 8 23 -18
84 -21 84 -3 0 19 -89 27 -100 10z"/>
<path d="M992 750 c0 -14 2 -19 5 -12 2 6 2 18 0 25 -3 6 -5 1 -5 -13z"/>
<path d="M1006 733 c-10 -64 -7 -93 9 -93 11 0 15 13 17 50 0 28 1 55 2 62 1
6 -4 13 -10 15 -6 2 -14 -13 -18 -34z"/>
<path d="M756 1334 c-3 -9 -4 -20 -1 -24 3 -5 1 -11 -5 -15 -5 -3 -10 -18 -9
-33 l1 -27 8 25 8 25 1 -25 c2 -24 2 -24 16 -6 18 24 19 55 1 79 -12 16 -14
16 -20 1z"/>
<path d="M716 1313 c-6 -14 -5 -15 5 -6 7 7 10 15 7 18 -3 3 -9 -2 -12 -12z"/>
<path d="M798 1285 c-6 -45 -3 -54 13 -38 7 7 7 22 1 44 l-9 34 -5 -40z"/>
<path d="M732 1298 c-7 -7 -11 -21 -11 -32 1 -21 1 -21 6 -1 3 11 10 26 15 33
13 15 6 16 -10 0z"/>
<path d="M702 1270 c0 -14 2 -19 5 -12 2 6 2 18 0 25 -3 6 -5 1 -5 -13z"/>
<path d="M717 1223 c-4 -3 -7 -12 -7 -20 0 -9 15 -13 49 -13 51 0 75 15 50 31
-16 10 -83 12 -92 2z m66 -20 c-13 -2 -33 -2 -45 0 -13 2 -3 4 22 4 25 0 35
-2 23 -4z"/>
<path d="M743 1173 c9 -2 25 -2 35 0 9 3 1 5 -18 5 -19 0 -27 -2 -17 -5z"/>
<path d="M751 1136 c-12 -29 -10 -106 1 -106 4 0 8 -17 8 -37 0 -23 4 -33 9
-27 15 14 16 187 3 192 -7 2 -16 -8 -21 -22z"/>
<path d="M730 935 c0 -9 9 -15 23 -14 21 0 21 1 2 9 -19 8 -19 9 3 9 12 1 22
-4 22 -10 0 -5 5 -7 10 -4 18 11 0 25 -31 25 -19 0 -29 -5 -29 -15z"/>
<path d="M757 868 c8 -59 13 -61 13 -5 0 26 -4 47 -9 47 -5 0 -7 -19 -4 -42z"/>
<path d="M1252 1328 c-15 -15 -16 -32 -2 -23 6 4 10 3 9 -2 -1 -4 -1 -21 0
-38 2 -29 2 -29 16 -11 18 24 19 47 2 69 -10 14 -15 15 -25 5z"/>
<path d="M1210 1314 c0 -8 5 -12 10 -9 6 3 10 10 10 16 0 5 -4 9 -10 9 -5 0
-10 -7 -10 -16z"/>
<path d="M1301 1298 c-1 -14 -4 -33 -7 -42 -3 -9 -2 -16 4 -16 16 0 21 26 12
57 l-8 28 -1 -27z"/>
<path d="M1224 1286 c-3 -8 -4 -23 -1 -33 3 -12 6 -7 7 12 l2 30 8 -30 8 -30
1 27 c1 30 -16 47 -25 24z"/>
<path d="M1201 1264 c0 -11 3 -14 6 -6 3 7 2 16 -1 19 -3 4 -6 -2 -5 -13z"/>
<path d="M1212 1217 c-17 -20 -5 -27 50 -27 42 0 49 3 46 18 -4 22 -79 30 -96
9z m71 -14 c-13 -2 -33 -2 -45 0 -13 2 -3 4 22 4 25 0 35 -2 23 -4z"/>
<path d="M1243 1173 c9 -2 25 -2 35 0 9 3 1 5 -18 5 -19 0 -27 -2 -17 -5z"/>
<path d="M1248 1123 c-4 -96 -3 -120 4 -141 16 -46 28 -9 28 84 0 77 -3 94
-15 94 -10 0 -16 -12 -17 -37z"/>
<path d="M1227 944 c-11 -12 3 -24 26 -23 20 1 20 2 -3 9 l-25 8 28 1 c15 1
27 -4 27 -10 0 -5 5 -7 10 -4 6 4 8 11 5 16 -7 10 -58 12 -68 3z"/>
<path d="M1255 887 c-3 -12 -2 -34 4 -47 9 -22 10 -19 10 23 1 51 -5 61 -14
24z"/>
<path d="M4785 1614 c-58 -62 -39 -239 27 -260 33 -10 67 5 83 37 38 73 27
190 -22 228 -34 28 -59 26 -88 -5z"/>
<path d="M5165 1614 c-58 -62 -39 -239 27 -260 33 -10 67 5 83 37 38 73 27
190 -22 228 -34 28 -59 26 -88 -5z"/>
<path d="M2900 936 c0 -95 3 -115 16 -120 25 -10 43 -7 80 10 47 22 68 65 61
123 -7 63 -49 101 -112 101 l-45 0 0 -114z"/>
<path d="M2022 825 c-42 -53 -39 -169 4 -212 47 -47 105 -15 119 67 20 121
-64 220 -123 145z"/>
<path d="M3676 699 c-22 -17 -27 -28 -24 -58 3 -39 27 -53 53 -31 16 13 21
110 6 110 -4 0 -20 -10 -35 -21z"/>
<path d="M4796 699 c-22 -17 -27 -28 -24 -58 3 -39 27 -53 53 -31 16 13 21
110 6 110 -4 0 -20 -10 -35 -21z"/>
</g>
</svg>
