<svg viewBox="0 0 169 169" version="1.1" xmlns="http://www.w3.org/2000/svg" title="animated image from https://www.brandevolutionco.com/" desc="Created using Brand Evolution svg converter at https://www.brandevolutionco.com/animate/" class="animate-svg"><defs><style>.animate-svg path{-webkit-animation:draw ease-in-out forwards;animation:draw ease-in-out forwards;stroke:#000}.animate-svg{-webkit-animation:fillopacity 3 ease-in-out forwards;animation:fillopacity 3s ease-in-out forwards}@-webkit-keyframes draw{100%{stroke-dashoffset:0}}@keyframes draw{100%{stroke-dashoffset:0}}@-webkit-keyframes fillopacity{0%,70%{fill-opacity:0;stroke-width:0.5%}100%{fill-opacity:1;stroke-width:0}}@keyframes fillopacity{0%,70%{fill-opacity:0;stroke-width:0.5%}100%{fill-opacity:1;stroke-width:0}}</style></defs><path fill="rgb(252,196,8)" stroke="rgb(252,196,8)" stroke-width="null" opacity="1" d="M 25 23 L 51.5 23 L 54 24 L 84 109 Q 86.7 110.1 86 107.5 L 115 30.5 L 120.5 23 L 146.5 23 Q 147.9 23.4 147 30.5 L 145.5 32 Q 140.1 31.4 138 33 L 139 64.5 L 140 65.5 L 140 78.5 L 141 79.5 L 141 94.5 L 142 95.5 L 142 112.5 L 143 113.5 L 143 128.5 L 144 134 L 155 135 L 155 143 L 133.5 143 L 131 140.5 Q 132.8 134.3 130 132.5 L 129 101.5 L 128 100.5 L 128 87.5 L 127 86.5 Q 127.6 62.4 124.5 42 L 93 122.5 L 90.5 126 L 79.5 126 L 78 124.5 L 47.5 42 Q 44.4 63.4 45 88.5 L 44 89.5 L 44 102.5 L 43 103.5 L 43 118.5 L 42 119.5 L 42 135.5 Q 42.1 141.1 38.5 143 L 17 143 L 17 135 L 28 134 L 29 131.5 L 29 116.5 L 30 115.5 L 30 99.5 L 31 98.5 L 31 81.5 L 32 80.5 L 34 33 Q 31.9 31.4 26.5 32 L 25 30.5 L 25 23 Z " style="stroke-dasharray: 961.009; stroke-dashoffset: 961.009; animation-delay: 0s; animation-duration: 1.47s;"></path><path fill="rgb(152,2,0)" stroke="rgb(152,2,0)" stroke-width="null" opacity="1" d="M 0 0 L 169 0 L 169 169 L 0 169 L 0 0 Z M 25 23 L 25 31 L 27 32 Q 32 31 34 33 L 32 81 L 31 82 L 31 99 L 30 100 L 30 116 L 29 117 L 29 132 L 28 134 L 17 135 L 17 143 L 39 143 Q 42 141 42 136 L 42 120 L 43 119 L 43 104 L 44 103 L 44 90 L 45 89 Q 44 63 48 42 L 78 125 L 80 126 L 91 126 L 93 123 L 125 42 Q 128 62 127 87 L 128 88 L 128 101 L 129 102 L 130 133 Q 133 134 131 141 L 134 143 L 155 143 L 155 135 L 144 134 L 143 129 L 143 114 L 142 113 L 142 96 L 141 95 L 141 80 L 140 79 L 140 66 L 139 65 L 138 33 Q 140 31 146 32 L 147 31 Q 148 23 147 23 L 121 23 L 115 31 L 86 108 Q 87 110 84 109 L 54 24 L 52 23 L 25 23 Z " style="stroke-dasharray: 1638.98; stroke-dashoffset: 1638.98; animation-delay: 0.5s; animation-duration: 2.23995s;"></path></svg>