<svg xmlns="http://www.w3.org/2000/svg" viewBox="-75 -50 150 100">
  <g transform="translate(-22,0)">
    <g class="ring" id="ring_1">
      <path
        fill="none"
        stroke="#00bcd4"
        stroke-width="5.5"
        transform="scale(1)"
        d="
          M -41.04 -18.47 A 45.00 45.00 0 0 0 -42.96 -13.39
        "
      />
    </g>
    <g class="ring" id="ring_2">
      <path
        fill="none"
        stroke="#00bcd4"
        stroke-width="5.5"
        transform="scale(0.7952707288)"
        d="
          M -18.47 -41.04 A 45.00 45.00 0 0 0 -23.28 -38.51
          M -35.42 -27.75 A 45.00 45.00 0 0 0 -38.51 -23.28
          M -41.04 -18.47 A 45.00 45.00 0 0 0 -42.96 -13.39
          M -44.92 2.72 A 45.00 45.00 0 0 0 -44.26 8.11
          M -38.51 23.28 A 45.00 45.00 0 0 0 -35.42 27.75
        "
      />
    </g>
    <g class="ring" id="ring_3">
      <path
        fill="none"
        stroke="#009688"
        stroke-width="5.5"
        transform="scale(0.632455532)"
        d="
          M 23.28 -38.51 A 45.00 45.00 0 0 0 18.47 -41.04
          M 2.72 -44.92 A 45.00 45.00 0 0 0 -2.72 -44.92
          M -8.11 -44.26 A 45.00 45.00 0 0 0 -13.39 -42.96
          M -18.47 -41.04 A 45.00 45.00 0 0 0 -23.28 -38.51
          M -27.75 -35.42 A 45.00 45.00 0 0 0 -31.82 -31.82
          M -35.42 -27.75 A 45.00 45.00 0 0 0 -38.51 -23.28
          M -41.04 -18.47 A 45.00 45.00 0 0 0 -42.96 -13.39
          M -44.26 -8.11 A 45.00 45.00 0 0 0 -44.92 -2.72
          M -44.92 2.72 A 45.00 45.00 0 0 0 -44.26 8.11
          M -42.96 13.39 A 45.00 45.00 0 0 0 -41.04 18.47
          M -38.51 23.28 A 45.00 45.00 0 0 0 -35.42 27.75
          M -31.82 31.82 A 45.00 45.00 0 0 0 -27.75 35.42
          M -13.39 42.96 A 45.00 45.00 0 0 0 -8.11 44.26
          M -2.72 44.92 A 45.00 45.00 0 0 0 2.72 44.92
          M 18.47 41.04 A 45.00 45.00 0 0 0 23.28 38.51
        "
      />
    </g>
    <g class="ring" id="ring_4">
      <path
        fill="none"
        stroke="#009688"
        stroke-width="5.5"
        transform="scale(0.5029733719)"
        d="
          M 23.28 -38.51 A 45.00 45.00 0 0 0 18.47 -41.04
          M 13.39 -42.96 A 45.00 45.00 0 0 0 8.11 -44.26
          M -8.11 -44.26 A 45.00 45.00 0 0 0 -13.39 -42.96
          M -18.47 -41.04 A 45.00 45.00 0 0 0 -23.28 -38.51
          M -27.75 -35.42 A 45.00 45.00 0 0 0 -31.82 -31.82
          M -35.42 -27.75 A 45.00 45.00 0 0 0 -38.51 -23.28
          M -41.04 -18.47 A 45.00 45.00 0 0 0 -42.96 -13.39
          M -44.26 -8.11 A 45.00 45.00 0 0 0 -44.92 -2.72
          M -42.96 13.39 A 45.00 45.00 0 0 0 -41.04 18.47
          M -38.51 23.28 A 45.00 45.00 0 0 0 -35.42 27.75
          M -31.82 31.82 A 45.00 45.00 0 0 0 -27.75 35.42
          M -23.28 38.51 A 45.00 45.00 0 0 0 -18.47 41.04
          M -13.39 42.96 A 45.00 45.00 0 0 0 -8.11 44.26
          M -2.72 44.92 A 45.00 45.00 0 0 0 2.72 44.92
          M 8.11 44.26 A 45.00 45.00 0 0 0 13.39 42.96
          M 18.47 41.04 A 45.00 45.00 0 0 0 23.28 38.51
        "
      />
    </g>
    <g class="ring" id="ring_5">
      <path
        fill="none"
        stroke="#4caf50"
        stroke-width="5.5"
        transform="scale(0.4)"
        d="
          M 23.28 -38.51 A 45.00 45.00 0 0 0 18.47 -41.04
          M 13.39 -42.96 A 45.00 45.00 0 0 0 8.11 -44.26
          M 2.72 -44.92 A 45.00 45.00 0 0 0 -2.72 -44.92
          M -8.11 -44.26 A 45.00 45.00 0 0 0 -13.39 -42.96
          M -18.47 -41.04 A 45.00 45.00 0 0 0 -23.28 -38.51
          M -27.75 -35.42 A 45.00 45.00 0 0 0 -31.82 -31.82
          M -41.04 -18.47 A 45.00 45.00 0 0 0 -42.96 -13.39
          M -44.26 -8.11 A 45.00 45.00 0 0 0 -44.92 -2.72
          M -44.92 2.72 A 45.00 45.00 0 0 0 -44.26 8.11
          M -42.96 13.39 A 45.00 45.00 0 0 0 -41.04 18.47
          M -23.28 38.51 A 45.00 45.00 0 0 0 -18.47 41.04
          M -13.39 42.96 A 45.00 45.00 0 0 0 -8.11 44.26
          M 8.11 44.26 A 45.00 45.00 0 0 0 13.39 42.96
          M 18.47 41.04 A 45.00 45.00 0 0 0 23.28 38.51
        "
      />
    </g>
  </g>
  <g class="text" id="text_1">
    <!-- Montserrat, semi-bold (600) -->
    <g
      aria-label="Greene"
      transform="translate(16.5,0) scale(1.65)"
      fill="#ffffff"
    >
      <!-- add inner "caret"/"hook" to capital G, missing in Montserrat -->
      <path d="M -23 -0.5 H -18.770625 v 1.8 H -23 z" />
      <path
        d="M -20.738625,-0.10770324 H -18.770625 V 4.356297 Q -19.634625,5.044297 -20.786625,5.412297 -21.938625,5.780297 -23.154625,5.780297 -24.866625,5.780297 -26.242625,5.044297 -27.618625,4.292297 -28.402625,2.980297 -29.186625,1.6682968 -29.186625,0.02029672 -29.186625,-1.627703 -28.402625,-2.939703 -27.618625,-4.251703 -26.242625,-4.987703 -24.850625,-5.739703 -23.122625,-5.739703 -21.714625,-5.739703 -20.562625,-5.275703 -19.410625,-4.811703 -18.626625,-3.915703 L -19.938625,-2.635703 Q -21.218625,-3.915703 -23.026625,-3.915703 -24.210625,-3.915703 -25.138625,-3.419703 -26.050625,-2.923703 -26.578625,-2.027703 -27.090625,-1.131703 -27.090625,0.02029672 -27.090625,1.1402967 -26.578625,2.0362969 -26.050625,2.932297 -25.138625,3.444297 -24.210625,3.956297 -23.042625,3.956297 -21.730625,3.956297 -20.738625,3.380297 Z"
      />
      <path
        d="M -14.330875,-1.675703 Q -13.466875,-3.019703 -11.290875,-3.019703 V -1.115703 Q -11.546875,-1.163703 -11.754875,-1.163703 -12.922875,-1.163703 -13.578875,-0.47570314 -14.234875,0.19629668 -14.234875,1.4762968 V 5.620297 H -16.234875 V -2.923703 H -14.330875 Z"
      />
      <path
        d="M -1.640375,1.3962968 Q -1.640375,1.6042968 -1.672375,1.9882969 H -8.376375 Q -8.200375,2.932297 -7.464375,3.492297 -6.712375,4.036297 -5.608375,4.036297 -4.200375,4.036297 -3.288375,3.108297 L -2.216375,4.340297 Q -2.792375,5.028297 -3.672375,5.380297 -4.552375,5.732297 -5.656375,5.732297 -7.064375,5.732297 -8.136375,5.172297 -9.208375,4.612297 -9.800375,3.620297 -10.376375,2.612297 -10.376375,1.3482968 -10.376375,0.1002967 -9.816375,-0.89170304 -9.240375,-1.899703 -8.232375,-2.459703 -7.224375,-3.019703 -5.960375,-3.019703 -4.712375,-3.019703 -3.736375,-2.459703 -2.744375,-1.915703 -2.200375,-0.90770304 -1.640375,0.0842967 -1.640375,1.3962968 Z M -5.960375,-1.419703 Q -6.920375,-1.419703 -7.592375,-0.84370306 -8.248375,-0.2837032 -8.392375,0.66029668 H -3.544375 Q -3.672375,-0.2677032 -4.328375,-0.84370306 -4.984375,-1.419703 -5.960375,-1.419703 Z"
      />
      <path
        d="M 8.297125,1.3962968 Q 8.297125,1.6042968 8.265125,1.9882969 H 1.561125 Q 1.737125,2.932297 2.473125,3.492297 3.225125,4.036297 4.329125,4.036297 5.737125,4.036297 6.649125,3.108297 L 7.721125,4.340297 Q 7.145125,5.028297 6.265125,5.380297 5.385125,5.732297 4.281125,5.732297 2.873125,5.732297 1.801125,5.172297 0.729125,4.612297 0.137125,3.620297 -0.438875,2.612297 -0.438875,1.3482968 -0.438875,0.1002967 0.121125,-0.89170304 0.697125,-1.899703 1.705125,-2.459703 2.713125,-3.019703 3.977125,-3.019703 5.225125,-3.019703 6.201125,-2.459703 7.193125,-1.915703 7.737125,-0.90770304 8.297125,0.0842967 8.297125,1.3962968 Z M 3.977125,-1.419703 Q 3.017125,-1.419703 2.345125,-0.84370306 1.689125,-0.2837032 1.545125,0.66029668 H 6.393125 Q 6.265125,-0.2677032 5.609125,-0.84370306 4.953125,-1.419703 3.977125,-1.419703 Z"
      />
      <path
        d="M 15.050625,-3.019703 Q 16.666625,-3.019703 17.642625,-2.075703 18.618625,-1.131703 18.618625,0.72429668 V 5.620297 H 16.618625 V 0.98029668 Q 16.618625,-0.13970324 16.090625,-0.6997031 15.562625,-1.275703 14.586625,-1.275703 13.482625,-1.275703 12.842625,-0.60370312 12.202625,0.0522967 12.202625,1.3002968 V 5.620297 H 10.202625 V -2.923703 H 12.106625 V -1.819703 Q 12.602625,-2.411703 13.354625,-2.715703 14.106625,-3.019703 15.050625,-3.019703 Z"
      />
      <path
        d="M 29.297125,1.3962968 Q 29.297125,1.6042968 29.265125,1.9882969 H 22.561125 Q 22.737125,2.932297 23.473125,3.492297 24.225125,4.036297 25.329125,4.036297 26.737125,4.036297 27.649125,3.108297 L 28.721125,4.340297 Q 28.145125,5.028297 27.265125,5.380297 26.385125,5.732297 25.281125,5.732297 23.873125,5.732297 22.801125,5.172297 21.729125,4.612297 21.137125,3.620297 20.561125,2.612297 20.561125,1.3482968 20.561125,0.1002967 21.121125,-0.89170304 21.697125,-1.899703 22.705125,-2.459703 23.713125,-3.019703 24.977125,-3.019703 26.225125,-3.019703 27.201125,-2.459703 28.193125,-1.915703 28.737125,-0.90770304 29.297125,0.0842967 29.297125,1.3962968 Z M 24.977125,-1.419703 Q 24.017125,-1.419703 23.345125,-0.84370306 22.689125,-0.2837032 22.545125,0.66029668 H 27.393125 Q 27.265125,-0.2677032 26.609125,-0.84370306 25.953125,-1.419703 24.977125,-1.419703 Z"
      />
    </g>
  </g>
  <g class="text" id="text_2">
    <!-- Montserrat, normal (400) -->
    <g
      aria-label="Lab"
      transform="translate(37.15,21) scale(1.5)"
      fill="#ffffff"
    >
      <path
        d="M -13.61279,-5.7266086 H -12.42879 V 4.4493914 H -6.1567904 V 5.4733914 H -13.61279 Z"
      />
      <path
        d="M -1.4400404,-3.0066086 Q 0.20795959,-3.0066086 1.0879596,-2.1746086 1.9679596,-1.3586086 1.9679596,0.25739141 V 5.4733914 H 0.87995959 V 4.1613914 Q 0.49595959,4.8173914 -0.25604041,5.1853914 -0.99204041,5.5533914 -2.0160404,5.5533914 -3.4240404,5.5533914 -4.2560404,4.8813914 -5.0880404,4.2093914 -5.0880404,3.1053914 -5.0880404,2.0333914 -4.3200404,1.3773914 -3.5360404,0.72139141 -1.8400404,0.72139141 H 0.83195959 V 0.20939141 Q 0.83195959,-0.87860859 0.22395959,-1.4386086 -0.38404041,-2.0146086 -1.5520404,-2.0146086 -2.3520404,-2.0146086 -3.0880404,-1.7426086 -3.8240404,-1.4866086 -4.3520404,-1.0226086 L -4.8640404,-1.8706086 Q -4.2240404,-2.4146086 -3.3280404,-2.7026086 -2.4320404,-3.0066086 -1.4400404,-3.0066086 Z M -1.8400404,4.6573914 Q -0.88004041,4.6573914 -0.19204041,4.2253914 0.49595959,3.7773914 0.83195959,2.9453914 V 1.5693914 H -1.8080404 Q -3.9680404,1.5693914 -3.9680404,3.0733914 -3.9680404,3.8093914 -3.4080404,4.2413914 -2.8480404,4.6573914 -1.8400404,4.6573914 Z"
      />
      <path
        d="M 9.3894596,-3.0066086 Q 10.57346,-3.0066086 11.53346,-2.4626086 12.49346,-1.9346086 13.03746,-0.95860859 13.58146,0.01739141 13.58146,1.2653914 13.58146,2.5133914 13.03746,3.4893914 12.49346,4.4653914 11.53346,5.0093914 10.57346,5.5533914 9.3894596,5.5533914 8.3334596,5.5533914 7.4854596,5.1053914 6.6534596,4.6573914 6.1414596,3.8093914 V 5.4733914 H 5.0534596 V -6.3986086 H 6.1894596 V -1.3426086 Q 6.7174596,-2.1586086 7.5334596,-2.5746086 8.3654596,-3.0066086 9.3894596,-3.0066086 Z M 9.3094596,4.5453914 Q 10.18946,4.5453914 10.90946,4.1453914 11.62946,3.7293914 12.02946,2.9773914 12.44546,2.2253914 12.44546,1.2653914 12.44546,0.30539141 12.02946,-0.44660859 11.62946,-1.1986086 10.90946,-1.5986086 10.18946,-2.0146086 9.3094596,-2.0146086 8.4134596,-2.0146086 7.6934596,-1.5986086 6.9894596,-1.1986086 6.5734596,-0.44660859 6.1734596,0.30539141 6.1734596,1.2653914 6.1734596,2.2253914 6.5734596,2.9773914 6.9894596,3.7293914 7.6934596,4.1453914 8.4134596,4.5453914 9.3094596,4.5453914 Z"
      />
    </g>
  </g>
</svg>
