<?xml version="1.0" standalone="no"?>
<!DOCTYPE svg PUBLIC "-//W3C//DTD SVG 20010904//EN"
 "http://www.w3.org/TR/2001/REC-SVG-20010904/DTD/svg10.dtd">
<svg version="1.0" xmlns="http://www.w3.org/2000/svg"
 width="1500.000000pt" height="1000.000000pt" viewBox="0 0 1500.000000 1000.000000"
 preserveAspectRatio="xMidYMid meet">
<metadata>
Created by potrace 1.16, written by Peter Selinger 2001-2019
</metadata>
<g transform="translate(0.000000,1000.000000) scale(0.100000,-0.100000)"
fill="#000000" stroke="none">
<path d="M0 5000 l0 -5000 7500 0 7500 0 0 5000 0 5000 -7500 0 -7500 0 0
-5000z m4580 3617 c25 -11 70 -28 100 -38 42 -15 69 -34 118 -85 34 -36 70
-80 78 -97 9 -18 27 -43 40 -57 12 -14 35 -52 49 -85 15 -33 33 -67 40 -75 15
-17 75 -135 133 -260 21 -47 48 -93 60 -104 12 -10 28 -40 37 -66 9 -26 27
-57 40 -70 13 -13 32 -45 41 -72 8 -26 30 -70 48 -96 18 -26 38 -64 45 -84 7
-21 27 -56 45 -77 20 -24 36 -56 40 -80 3 -24 19 -55 36 -75 17 -19 44 -65 61
-103 17 -37 40 -80 50 -94 10 -14 27 -51 39 -81 11 -31 28 -62 37 -70 9 -7 27
-37 40 -67 13 -30 38 -74 55 -98 16 -25 41 -71 53 -104 13 -32 33 -72 44 -88
12 -16 28 -49 36 -72 9 -24 26 -56 39 -73 13 -17 35 -54 49 -82 14 -28 37 -64
50 -80 13 -16 32 -55 41 -86 9 -31 21 -60 27 -64 6 -3 25 -38 43 -78 18 -39
45 -85 60 -103 14 -17 33 -50 41 -73 8 -23 30 -59 49 -81 19 -22 37 -55 40
-74 8 -43 111 -242 142 -275 13 -14 30 -47 38 -73 8 -26 28 -63 45 -82 17 -20
31 -41 31 -48 0 -8 22 -58 49 -113 27 -54 52 -111 56 -125 4 -15 22 -42 41
-60 19 -18 34 -38 34 -44 0 -6 19 -42 41 -80 23 -38 53 -96 67 -129 13 -34 33
-73 43 -88 11 -15 26 -46 35 -70 8 -24 27 -56 43 -73 15 -16 38 -56 50 -87 13
-32 30 -63 39 -70 8 -7 28 -42 44 -76 15 -35 37 -76 48 -92 10 -15 24 -49 30
-76 7 -29 27 -69 50 -99 21 -27 45 -66 53 -85 8 -19 26 -48 41 -63 14 -15 29
-40 32 -55 12 -51 57 -122 80 -128 13 -3 39 0 59 6 32 10 41 21 65 76 16 35
34 64 39 64 6 0 23 23 37 52 15 29 37 68 50 88 13 20 35 65 49 100 14 35 36
75 49 89 14 15 33 47 44 72 11 25 31 53 46 62 18 12 28 30 32 58 4 23 22 63
40 90 19 27 45 72 57 101 13 29 36 67 50 84 15 17 35 51 45 75 11 25 27 51 36
59 10 7 30 39 46 70 16 31 35 62 44 69 8 7 24 41 36 76 12 35 32 79 45 97 14
18 33 51 43 73 11 22 31 54 45 71 15 17 36 52 47 78 11 26 32 63 48 84 16 20
37 58 46 84 9 26 31 64 48 85 17 21 41 61 54 90 13 28 28 54 35 58 6 4 22 33
36 63 13 31 35 68 48 84 13 15 33 57 45 93 14 42 30 71 45 81 13 9 31 35 40
59 10 24 30 56 46 71 18 17 36 50 45 81 9 29 26 66 38 81 32 37 56 87 56 112
0 12 13 34 29 49 15 14 36 42 46 61 9 19 34 58 55 85 20 28 44 71 54 96 9 26
25 54 36 64 10 9 31 48 45 85 14 38 33 74 41 81 9 7 29 38 45 68 16 31 42 74
58 95 16 22 36 61 46 88 9 26 21 51 27 54 5 3 24 39 43 79 18 40 38 76 44 79
6 4 25 35 43 69 17 34 42 76 55 94 26 34 70 114 126 228 18 39 42 76 51 84 10
8 29 38 43 65 14 28 38 65 53 82 15 18 36 54 46 80 9 27 26 62 37 77 10 15 28
51 38 79 10 28 30 63 43 77 14 14 34 46 46 71 11 25 36 68 55 95 19 28 45 66
59 87 65 97 221 174 381 188 120 11 2097 12 2173 1 30 -4 58 -14 63 -22 10
-16 12 -388 3 -414 -7 -17 -91 -59 -140 -69 -16 -3 -101 -11 -189 -16 -88 -6
-186 -15 -217 -20 -32 -6 -86 -15 -120 -20 -150 -24 -140 2 -122 -350 9 -157
19 -332 24 -390 5 -58 14 -159 19 -225 5 -66 17 -205 25 -310 9 -104 23 -275
32 -380 9 -104 24 -235 34 -290 26 -140 38 -255 45 -435 7 -216 25 -376 56
-530 5 -25 16 -162 24 -305 8 -143 20 -309 26 -370 6 -60 14 -159 17 -220 4
-60 11 -117 17 -125 5 -8 13 -73 16 -145 25 -507 33 -605 69 -810 11 -66 25
-199 30 -295 18 -338 38 -512 82 -717 19 -90 22 -91 268 -103 118 -5 247 -14
285 -20 96 -13 235 -28 328 -35 48 -4 83 -12 92 -22 12 -12 15 -51 15 -218 0
-178 -2 -205 -17 -224 l-18 -21 -845 0 c-465 0 -887 4 -938 9 -103 11 -155 36
-238 116 -37 35 -44 49 -57 115 -9 41 -20 132 -27 201 -6 70 -15 142 -21 160
-13 45 -28 196 -40 399 -5 91 -14 228 -20 305 -6 77 -14 190 -18 250 -4 61
-15 160 -24 220 -16 113 -30 274 -47 541 -5 84 -14 172 -19 196 -25 109 -50
316 -56 458 -7 171 -28 370 -49 470 -19 90 -25 148 -36 350 -8 159 -23 340
-49 600 -32 315 -40 410 -45 540 -7 168 -22 308 -42 400 -20 91 -33 218 -44
408 -9 167 -21 212 -55 212 -27 0 -92 -69 -130 -138 -34 -62 -62 -105 -132
-207 -16 -21 -46 -75 -69 -120 -22 -44 -53 -105 -68 -135 -15 -30 -40 -68 -56
-85 -15 -16 -33 -46 -39 -66 -7 -20 -21 -45 -32 -55 -12 -11 -34 -44 -49 -74
-16 -30 -45 -89 -67 -131 -21 -42 -50 -90 -65 -108 -15 -17 -36 -52 -48 -77
-11 -25 -33 -62 -48 -82 -33 -42 -132 -226 -132 -246 0 -7 -14 -25 -31 -42
-18 -16 -40 -48 -50 -70 -10 -23 -26 -48 -36 -55 -9 -8 -31 -46 -49 -85 -18
-40 -37 -75 -44 -79 -6 -3 -27 -39 -47 -78 -19 -40 -46 -85 -58 -102 -12 -16
-28 -46 -34 -66 -6 -20 -25 -49 -42 -65 -17 -16 -39 -48 -49 -71 -10 -24 -30
-58 -45 -76 -14 -19 -33 -56 -42 -83 -9 -27 -27 -62 -40 -78 -13 -16 -36 -52
-50 -80 -14 -28 -35 -61 -46 -74 -24 -26 -71 -107 -115 -197 -16 -33 -45 -82
-65 -108 -19 -25 -39 -57 -42 -69 -4 -13 -25 -46 -46 -74 -22 -28 -39 -55 -39
-60 0 -5 -16 -34 -35 -63 -18 -30 -37 -68 -41 -85 -7 -32 -46 -100 -64 -111
-6 -3 -20 -25 -31 -48 -12 -23 -36 -58 -54 -78 -18 -20 -40 -61 -50 -90 -10
-30 -26 -63 -36 -74 -10 -11 -27 -42 -39 -69 -11 -27 -32 -62 -46 -79 -14 -16
-37 -53 -51 -81 -14 -28 -35 -61 -46 -74 -21 -23 -54 -78 -120 -202 -19 -36
-51 -89 -71 -119 -20 -29 -36 -58 -36 -64 0 -5 -12 -26 -27 -46 -16 -20 -44
-67 -64 -106 -56 -111 -101 -188 -126 -219 -13 -16 -33 -47 -45 -70 -30 -59
-76 -113 -107 -125 -18 -8 -176 -11 -520 -9 l-493 3 -26 32 c-38 44 -77 112
-92 156 -6 21 -22 50 -34 65 -13 15 -33 47 -46 72 -12 25 -33 59 -46 77 -13
17 -33 54 -44 83 -11 29 -31 66 -44 83 -14 18 -33 56 -44 85 -11 29 -36 70
-55 91 -19 21 -40 56 -47 77 -7 22 -23 50 -36 64 -13 14 -31 48 -41 75 -9 27
-33 76 -54 108 -21 32 -40 71 -44 86 -3 16 -16 37 -27 47 -11 11 -32 44 -45
74 -14 30 -35 69 -47 85 -13 17 -40 64 -60 105 -74 148 -103 200 -124 223 -11
12 -31 45 -43 72 -12 28 -34 64 -49 80 -15 17 -31 44 -34 60 -4 17 -20 50 -36
75 -16 25 -44 79 -63 120 -18 41 -41 81 -50 88 -9 8 -21 30 -28 50 -6 20 -24
53 -40 74 -16 20 -36 56 -45 80 -10 23 -32 65 -51 91 -18 26 -43 72 -54 101
-10 29 -28 61 -39 71 -11 10 -27 38 -36 64 -10 25 -32 62 -50 81 -18 19 -37
53 -43 75 -6 22 -31 74 -56 115 -24 41 -45 80 -45 86 0 6 -14 28 -30 49 -17
21 -40 59 -51 84 -11 25 -29 55 -40 67 -10 11 -30 48 -43 82 -13 34 -33 74
-44 90 -11 15 -32 54 -46 86 -14 32 -39 74 -56 92 -16 19 -30 41 -30 48 0 7
-20 44 -45 82 -25 37 -45 72 -45 77 0 6 -22 46 -49 91 -26 45 -51 95 -55 111
-4 17 -21 47 -37 68 -17 20 -35 52 -41 70 -6 17 -23 46 -39 62 -15 17 -39 56
-53 88 -14 32 -34 71 -45 86 -11 15 -29 53 -41 83 -11 30 -31 65 -45 78 -13
12 -31 44 -40 70 -9 26 -25 56 -36 66 -11 10 -35 50 -53 89 -33 71 -114 160
-139 152 -27 -8 -36 -63 -51 -297 -9 -135 -23 -274 -31 -309 -27 -113 -46
-271 -56 -476 -5 -110 -14 -238 -19 -285 -6 -47 -14 -143 -19 -215 -4 -71 -13
-168 -19 -215 -14 -109 -30 -319 -37 -490 -6 -130 -20 -261 -50 -440 -8 -47
-19 -155 -25 -240 -21 -305 -31 -416 -45 -495 -19 -107 -44 -336 -50 -465 -6
-103 -39 -456 -51 -535 -9 -57 -38 -471 -48 -690 -7 -128 -19 -224 -57 -460
-30 -182 -32 -185 -91 -231 -85 -65 -120 -82 -188 -94 -93 -15 -691 -21 -1285
-13 -466 7 -513 10 -538 26 l-27 18 2 207 3 207 26 12 c14 7 82 17 150 23 68
6 171 17 229 25 58 8 192 19 298 25 212 11 246 20 282 70 27 38 32 77 54 430
16 251 29 370 51 490 23 128 25 139 36 355 5 116 15 273 20 350 5 77 13 190
17 250 4 61 12 117 17 125 9 14 16 114 44 630 10 177 24 303 46 415 15 81 32
280 40 480 6 141 23 304 50 470 18 112 31 260 50 580 9 138 22 306 31 375 29
234 63 793 55 917 0 13 -11 29 -24 37 -27 18 -261 53 -447 67 -160 11 -219 22
-280 52 l-45 22 -3 209 c-1 136 1 213 8 220 6 6 34 13 63 17 28 4 542 6 1142
5 1035 -1 1092 -2 1135 -19z"/>
</g>
</svg>
